<?xml version="1.0" encoding="UTF-8"?>
<svg xmlns="http://www.w3.org/2000/svg" viewBox="31.91600000000001 5 124.52399999999999 188" font-family="&quot;Hiragino Sans&quot;, &quot;Yu Gothic&quot;, &quot;Noto Sans CJK JP&quot;, sans-serif" shape-rendering="geometricPrecision" version="1.1" width="1060" height="1600" preserveAspectRatio="xMidYMid meet"><g><path d="M 100 22 L 100 33.2" fill="none" stroke="#000" stroke-width="0.4" stroke-linecap="butt" stroke-linejoin="miter"/></g><g><path d="M 100 50 L 100 57 L 77 57 L 77 61.2" fill="none" stroke="#000" stroke-width="0.4" stroke-linecap="butt" stroke-linejoin="miter"/><text x="82.06" y="53" font-size="2.4" fill="#000" text-anchor="middle" dominant-baseline="alphabetic">answer support requested</text></g><g><path d="M 100 50 L 100 57 L 123 57 L 123 61.2" fill="none" stroke="#000" stroke-width="0.4" stroke-linecap="butt" stroke-linejoin="miter"/><text x="117.94" y="53" font-size="2.4" fill="#000" text-anchor="middle" dominant-baseline="alphabetic">valid review artifact</text></g><g><path d="M 77 78 L 77 89.2" fill="none" stroke="#000" stroke-width="0.4" stroke-linecap="butt" stroke-linejoin="miter"/></g><g><path d="M 123 78 L 123 89.2" fill="none" stroke="#000" stroke-width="0.4" stroke-linecap="butt" stroke-linejoin="miter"/></g><g><path d="M 123 106 L 123 113 L 100 113 L 100 117.2" fill="none" stroke="#000" stroke-width="0.4" stroke-linecap="butt" stroke-linejoin="miter"/></g><g><path d="M 100 134 L 100 145.2" fill="none" stroke="#000" stroke-width="0.4" stroke-linecap="butt" stroke-linejoin="miter"/><text x="104" y="141" font-size="2.4" fill="#000" text-anchor="start" dominant-baseline="middle">diagram artifact</text></g><g><path d="M 118 127 L 151 127 L 151 99 L 97.8 99" fill="none" stroke="#000" stroke-width="0.4" stroke-linecap="butt" stroke-linejoin="miter"/><text x="138.68" y="88.6" font-size="2.4" fill="#000" text-anchor="middle" dominant-baseline="alphabetic">evidence claim appears</text></g><g><path d="M 100 162 L 100 173.2" fill="none" stroke="#000" stroke-width="0.4" stroke-linecap="butt" stroke-linejoin="miter"/><text x="104" y="169" font-size="2.4" fill="#000" text-anchor="start" dominant-baseline="middle">no consistency refs</text></g><g><polygon points="100,36 101.25,33.2 98.75,33.2" fill="#000" stroke="#000" stroke-width="0"/></g><g><polygon points="77,64 78.25,61.2 75.75,61.2" fill="#000" stroke="#000" stroke-width="0"/></g><g><polygon points="123,64 124.25,61.2 121.75,61.2" fill="#000" stroke="#000" stroke-width="0"/></g><g><polygon points="77,92 78.25,89.2 75.75,89.2" fill="#000" stroke="#000" stroke-width="0"/></g><g><polygon points="123,92 124.25,89.2 121.75,89.2" fill="#000" stroke="#000" stroke-width="0"/></g><g><polygon points="100,120 101.25,117.2 98.75,117.2" fill="#000" stroke="#000" stroke-width="0"/></g><g><polygon points="100,148 101.25,145.2 98.75,145.2" fill="#000" stroke="#000" stroke-width="0"/></g><g><polygon points="95,99 97.8,100.25 97.8,97.75" fill="#000" stroke="#000" stroke-width="0"/></g><g><polygon points="100,176 101.25,173.2 98.75,173.2" fill="#000" stroke="#000" stroke-width="0"/></g><g><rect x="82" y="8" width="36" height="14" rx="7" ry="7" fill="white" stroke="#000" stroke-width="0.4"/><text x="100" y="14.328000000000001" font-size="2.8" fill="#000" text-anchor="middle">S100</text><text x="100" y="17.688000000000002" font-size="2.8" fill="#000" text-anchor="middle">Structured control data</text></g><g><rect x="82" y="36" width="36" height="14" fill="white" stroke="#000" stroke-width="0.4"/><text x="100" y="42.328" font-size="2.8" fill="#000" text-anchor="middle">S110</text><text x="100" y="45.688" font-size="2.8" fill="#000" text-anchor="middle">Validate schema and not_evidence contract</text></g><g><rect x="59" y="64" width="36" height="14" fill="white" stroke="#000" stroke-width="0.4"/><text x="77" y="70.328" font-size="2.8" fill="#000" text-anchor="middle">S120</text><text x="77" y="73.688" font-size="2.8" fill="#000" text-anchor="middle">Reject invalid evidence fields</text></g><g><rect x="105" y="64" width="36" height="14" fill="white" stroke="#000" stroke-width="0.4"/><text x="123" y="70.328" font-size="2.8" fill="#000" text-anchor="middle">S130</text><text x="123" y="73.688" font-size="2.8" fill="#000" text-anchor="middle">Render self-contained safe HTML</text></g><g><rect x="59" y="92" width="36" height="14" rx="7" ry="7" fill="white" stroke="#000" stroke-width="0.4"/><text x="77" y="98.328" font-size="2.8" fill="#000" text-anchor="middle">S900</text><text x="77" y="101.688" font-size="2.8" fill="#000" text-anchor="middle">Stop at evidence claim external script fetch or storage</text></g><g><rect x="105" y="92" width="36" height="14" fill="white" stroke="#000" stroke-width="0.4"/><text x="123" y="98.328" font-size="2.8" fill="#000" text-anchor="middle">S140</text><text x="123" y="101.688" font-size="2.8" fill="#000" text-anchor="middle">Update pointer-map JSON</text></g><g><rect x="82" y="120" width="36" height="14" fill="white" stroke="#000" stroke-width="0.4"/><text x="100" y="126.328" font-size="2.8" fill="#000" text-anchor="middle">S150</text><text x="100" y="129.68800000000002" font-size="2.8" fill="#000" text-anchor="middle">Review-only output</text></g><g><rect x="82" y="148" width="36" height="14" fill="white" stroke="#000" stroke-width="0.4"/><text x="100" y="154.32799999999997" font-size="2.8" fill="#000" text-anchor="middle">S160</text><text x="100" y="157.688" font-size="2.8" fill="#000" text-anchor="middle">Diagram review boundary check</text></g><g><rect x="82" y="176" width="36" height="14" rx="7" ry="7" fill="white" stroke="#000" stroke-width="0.4"/><text x="100" y="182.32799999999997" font-size="2.8" fill="#000" text-anchor="middle">S170</text><text x="100" y="185.688" font-size="2.8" fill="#000" text-anchor="middle">Needs review until consistency refs exist</text></g></svg>