<?xml version="1.0" encoding="UTF-8"?>
<svg xmlns="http://www.w3.org/2000/svg" viewBox="46.643999999999984 5 98.69000000000003 216" font-family="&quot;Hiragino Sans&quot;, &quot;Yu Gothic&quot;, &quot;Noto Sans CJK JP&quot;, sans-serif" shape-rendering="geometricPrecision" version="1.1" width="732" height="1600" preserveAspectRatio="xMidYMid meet"><g><path d="M 100 22 L 100 33.2" fill="none" stroke="#000" stroke-width="0.4" stroke-linecap="butt" stroke-linejoin="miter"/></g><g><path d="M 100 50 L 100 61.2" fill="none" stroke="#000" stroke-width="0.4" stroke-linecap="butt" stroke-linejoin="miter"/></g><g><path d="M 100 78 L 100 85 L 77 85 L 77 89.2" fill="none" stroke="#000" stroke-width="0.4" stroke-linecap="butt" stroke-linejoin="miter"/><text x="88.5" y="81" font-size="2.4" fill="#000" text-anchor="middle" dominant-baseline="alphabetic">restore tweet, quote, media, author, URL, time, source hash</text></g><g><path d="M 100 78 L 100 85 L 123 85 L 123 89.2" fill="none" stroke="#000" stroke-width="0.4" stroke-linecap="butt" stroke-linejoin="miter"/><text x="111.5" y="91.4" font-size="2.4" fill="#000" text-anchor="middle" dominant-baseline="alphabetic">missing restoration path</text></g><g><path d="M 77 106 L 77 113 L 100 113 L 100 117.2" fill="none" stroke="#000" stroke-width="0.4" stroke-linecap="butt" stroke-linejoin="miter"/></g><g><path d="M 100 134 L 100 141 L 77 141 L 77 145.2" fill="none" stroke="#000" stroke-width="0.4" stroke-linecap="butt" stroke-linejoin="miter"/></g><g><path d="M 77 162 L 77 169 L 100 169 L 100 173.2" fill="none" stroke="#000" stroke-width="0.4" stroke-linecap="butt" stroke-linejoin="miter"/></g><g><path d="M 100 190 L 100 201.2" fill="none" stroke="#000" stroke-width="0.4" stroke-linecap="butt" stroke-linejoin="miter"/></g><g><path d="M 100 134 L 100 141 L 123 141 L 123 145.2" fill="none" stroke="#000" stroke-width="0.4" stroke-linecap="butt" stroke-linejoin="miter"/><text x="117.94" y="137" font-size="2.4" fill="#000" text-anchor="middle" dominant-baseline="alphabetic">unsupported chunk</text></g><g><path d="M 95 155 L 102.2 155" fill="none" stroke="#000" stroke-width="0.4" stroke-linecap="butt" stroke-linejoin="miter"/><text x="100" y="144.6" font-size="2.4" fill="#000" text-anchor="middle" dominant-baseline="alphabetic">missing citation annotation</text></g><g><polygon points="100,36 101.25,33.2 98.75,33.2" fill="#000" stroke="#000" stroke-width="0"/></g><g><polygon points="100,64 101.25,61.2 98.75,61.2" fill="#000" stroke="#000" stroke-width="0"/></g><g><polygon points="77,92 78.25,89.2 75.75,89.2" fill="#000" stroke="#000" stroke-width="0"/></g><g><polygon points="123,92 124.25,89.2 121.75,89.2" fill="#000" stroke="#000" stroke-width="0"/></g><g><polygon points="100,120 101.25,117.2 98.75,117.2" fill="#000" stroke="#000" stroke-width="0"/></g><g><polygon points="77,148 78.25,145.2 75.75,145.2" fill="#000" stroke="#000" stroke-width="0"/></g><g><polygon points="100,176 101.25,173.2 98.75,173.2" fill="#000" stroke="#000" stroke-width="0"/></g><g><polygon points="100,204 101.25,201.2 98.75,201.2" fill="#000" stroke="#000" stroke-width="0"/></g><g><polygon points="123,148 124.25,145.2 121.75,145.2" fill="#000" stroke="#000" stroke-width="0"/></g><g><polygon points="105,155 102.2,153.75 102.2,156.25" fill="#000" stroke="#000" stroke-width="0"/></g><g><rect x="82" y="8" width="36" height="14" rx="7" ry="7" fill="white" stroke="#000" stroke-width="0.4"/><text x="100" y="14.328000000000001" font-size="2.8" fill="#000" text-anchor="middle">S100</text><text x="100" y="17.688000000000002" font-size="2.8" fill="#000" text-anchor="middle">Raw source</text></g><g><rect x="82" y="36" width="36" height="14" fill="white" stroke="#000" stroke-width="0.4"/><text x="100" y="42.328" font-size="2.8" fill="#000" text-anchor="middle">S110</text><text x="100" y="45.688" font-size="2.8" fill="#000" text-anchor="middle">Searchable document</text></g><g><rect x="82" y="64" width="36" height="14" fill="white" stroke="#000" stroke-width="0.4"/><text x="100" y="70.328" font-size="2.8" fill="#000" text-anchor="middle">S120</text><text x="100" y="73.688" font-size="2.8" fill="#000" text-anchor="middle">Search result</text></g><g><rect x="59" y="92" width="36" height="14" fill="white" stroke="#000" stroke-width="0.4"/><text x="77" y="98.328" font-size="2.8" fill="#000" text-anchor="middle">S130</text><text x="77" y="101.688" font-size="2.8" fill="#000" text-anchor="middle">Source bundle restored</text></g><g><rect x="105" y="92" width="36" height="14" rx="7" ry="7" fill="white" stroke="#000" stroke-width="0.4"/><text x="123" y="98.328" font-size="2.8" fill="#000" text-anchor="middle">S900</text><text x="123" y="101.688" font-size="2.8" fill="#000" text-anchor="middle">Stop: source not restored</text></g><g><rect x="82" y="120" width="36" height="14" fill="white" stroke="#000" stroke-width="0.4"/><text x="100" y="126.328" font-size="2.8" fill="#000" text-anchor="middle">S140</text><text x="100" y="129.68800000000002" font-size="2.8" fill="#000" text-anchor="middle">Context chunks</text></g><g><rect x="59" y="148" width="36" height="14" fill="white" stroke="#000" stroke-width="0.4"/><text x="77" y="154.32799999999997" font-size="2.8" fill="#000" text-anchor="middle">S150</text><text x="77" y="157.688" font-size="2.8" fill="#000" text-anchor="middle">Citation annotations</text></g><g><rect x="105" y="148" width="36" height="14" rx="7" ry="7" fill="white" stroke="#000" stroke-width="0.4"/><text x="123" y="154.32799999999997" font-size="2.8" fill="#000" text-anchor="middle">S910</text><text x="123" y="157.688" font-size="2.8" fill="#000" text-anchor="middle">Stop: citation missing</text></g><g><rect x="82" y="176" width="36" height="14" fill="white" stroke="#000" stroke-width="0.4"/><text x="100" y="182.32799999999997" font-size="2.8" fill="#000" text-anchor="middle">S160</text><text x="100" y="185.688" font-size="2.8" fill="#000" text-anchor="middle">Answer</text></g><g><rect x="82" y="204" width="36" height="14" rx="7" ry="7" fill="white" stroke="#000" stroke-width="0.4"/><text x="100" y="210.32799999999997" font-size="2.8" fill="#000" text-anchor="middle">S170</text><text x="100" y="213.688" font-size="2.8" fill="#000" text-anchor="middle">Workflow trace</text></g></svg>