<?xml version="1.0" encoding="UTF-8"?>
<svg xmlns="http://www.w3.org/2000/svg" viewBox="33 5 139.716 160" font-family="&quot;Hiragino Sans&quot;, &quot;Yu Gothic&quot;, &quot;Noto Sans CJK JP&quot;, sans-serif" shape-rendering="geometricPrecision" version="1.1" width="1398" height="1600" preserveAspectRatio="xMidYMid meet"><g><path d="M 100 22 L 100 33.2" fill="none" stroke="#000" stroke-width="0.4" stroke-linecap="butt" stroke-linejoin="miter"/></g><g><path d="M 82 43 L 77 43 L 77 71 L 74.8 71" fill="none" stroke="#000" stroke-width="0.4" stroke-linecap="butt" stroke-linejoin="miter"/><text x="73" y="57" font-size="2.4" fill="#000" text-anchor="end" dominant-baseline="middle">saved-data recall</text></g><g><path d="M 100 50 L 100 61.2" fill="none" stroke="#000" stroke-width="0.4" stroke-linecap="butt" stroke-linejoin="miter"/><text x="104" y="57" font-size="2.4" fill="#000" text-anchor="start" dominant-baseline="middle">relation or exact anchor</text></g><g><path d="M 118 43 L 123 43 L 123 71 L 125.2 71" fill="none" stroke="#000" stroke-width="0.4" stroke-linecap="butt" stroke-linejoin="miter"/><text x="127" y="52.8" font-size="2.4" fill="#000" text-anchor="start" dominant-baseline="middle">external or model-only lane</text></g><g><path d="M 146 78 L 146 85 L 123 85 L 123 89.2" fill="none" stroke="#000" stroke-width="0.4" stroke-linecap="butt" stroke-linejoin="miter"/><text x="140.94" y="91.4" font-size="2.4" fill="#000" text-anchor="middle" dominant-baseline="alphabetic">no explicit quota approval</text></g><g><path d="M 54 78 L 54 85 L 77 85 L 77 89.2" fill="none" stroke="#000" stroke-width="0.4" stroke-linecap="butt" stroke-linejoin="miter"/></g><g><path d="M 100 78 L 100 85 L 77 85 L 77 89.2" fill="none" stroke="#000" stroke-width="0.4" stroke-linecap="butt" stroke-linejoin="miter"/></g><g><path d="M 77 106 L 77 117.2" fill="none" stroke="#000" stroke-width="0.4" stroke-linecap="butt" stroke-linejoin="miter"/><text x="81" y="113" font-size="2.4" fill="#000" text-anchor="start" dominant-baseline="middle">restored</text></g><g><path d="M 95 99 L 100 99 L 100 127 L 102.2 127" fill="none" stroke="#000" stroke-width="0.4" stroke-linecap="butt" stroke-linejoin="miter"/><text x="104" y="113" font-size="2.4" fill="#000" text-anchor="start" dominant-baseline="middle">not restored</text></g><g><path d="M 77 134 L 77 141 L 100 141 L 100 145.2" fill="none" stroke="#000" stroke-width="0.4" stroke-linecap="butt" stroke-linejoin="miter"/></g><g><polygon points="100,36 101.25,33.2 98.75,33.2" fill="#000" stroke="#000" stroke-width="0"/></g><g><polygon points="72,71 74.8,72.25 74.8,69.75" fill="#000" stroke="#000" stroke-width="0"/></g><g><polygon points="100,64 101.25,61.2 98.75,61.2" fill="#000" stroke="#000" stroke-width="0"/></g><g><polygon points="128,71 125.2,69.75 125.2,72.25" fill="#000" stroke="#000" stroke-width="0"/></g><g><polygon points="123,92 124.25,89.2 121.75,89.2" fill="#000" stroke="#000" stroke-width="0"/></g><g><polygon points="77,92 78.25,89.2 75.75,89.2" fill="#000" stroke="#000" stroke-width="0"/></g><g><polygon points="77,92 78.25,89.2 75.75,89.2" fill="#000" stroke="#000" stroke-width="0"/></g><g><polygon points="77,120 78.25,117.2 75.75,117.2" fill="#000" stroke="#000" stroke-width="0"/></g><g><polygon points="105,127 102.2,125.75 102.2,128.25" fill="#000" stroke="#000" stroke-width="0"/></g><g><polygon points="100,148 101.25,145.2 98.75,145.2" fill="#000" stroke="#000" stroke-width="0"/></g><g><rect x="82" y="8" width="36" height="14" rx="7" ry="7" fill="white" stroke="#000" stroke-width="0.4"/><text x="100" y="14.328000000000001" font-size="2.8" fill="#000" text-anchor="middle">S100</text><text x="100" y="17.688000000000002" font-size="2.8" fill="#000" text-anchor="middle">Receive objective</text></g><g><rect x="82" y="36" width="36" height="14" fill="white" stroke="#000" stroke-width="0.4"/><text x="100" y="42.328" font-size="2.8" fill="#000" text-anchor="middle">S110</text><text x="100" y="45.688" font-size="2.8" fill="#000" text-anchor="middle">Classify route need</text></g><g><rect x="36" y="64" width="36" height="14" fill="white" stroke="#000" stroke-width="0.4"/><text x="54" y="70.328" font-size="2.8" fill="#000" text-anchor="middle">S120</text><text x="54" y="73.688" font-size="2.8" fill="#000" text-anchor="middle">Local evidence route</text></g><g><rect x="82" y="64" width="36" height="14" fill="white" stroke="#000" stroke-width="0.4"/><text x="100" y="70.328" font-size="2.8" fill="#000" text-anchor="middle">S130</text><text x="100" y="73.688" font-size="2.8" fill="#000" text-anchor="middle">Local relation or exact-anchor route</text></g><g><rect x="128" y="64" width="36" height="14" fill="white" stroke="#000" stroke-width="0.4"/><text x="146" y="70.328" font-size="2.8" fill="#000" text-anchor="middle">S140</text><text x="146" y="73.688" font-size="2.8" fill="#000" text-anchor="middle">Provider-gated candidate route</text></g><g><rect x="59" y="92" width="36" height="14" fill="white" stroke="#000" stroke-width="0.4"/><text x="77" y="98.328" font-size="2.8" fill="#000" text-anchor="middle">S150</text><text x="77" y="101.688" font-size="2.8" fill="#000" text-anchor="middle">Restore source bundle</text></g><g><rect x="105" y="92" width="36" height="14" rx="7" ry="7" fill="white" stroke="#000" stroke-width="0.4"/><text x="123" y="98.328" font-size="2.8" fill="#000" text-anchor="middle">S900</text><text x="123" y="101.688" font-size="2.8" fill="#000" text-anchor="middle">Stop: provider quota gate</text></g><g><rect x="59" y="120" width="36" height="14" fill="white" stroke="#000" stroke-width="0.4"/><text x="77" y="126.328" font-size="2.8" fill="#000" text-anchor="middle">S160</text><text x="77" y="129.68800000000002" font-size="2.8" fill="#000" text-anchor="middle">Build citation-ready context</text></g><g><rect x="105" y="120" width="36" height="14" rx="7" ry="7" fill="white" stroke="#000" stroke-width="0.4"/><text x="123" y="126.328" font-size="2.8" fill="#000" text-anchor="middle">S910</text><text x="123" y="129.68800000000002" font-size="2.8" fill="#000" text-anchor="middle">Stop: route gap needs review</text></g><g><rect x="82" y="148" width="36" height="14" rx="7" ry="7" fill="white" stroke="#000" stroke-width="0.4"/><text x="100" y="154.32799999999997" font-size="2.8" fill="#000" text-anchor="middle">S170</text><text x="100" y="157.688" font-size="2.8" fill="#000" text-anchor="middle">Answer or abstain</text></g></svg>