<?xml version="1.0" encoding="UTF-8"?>
<svg xmlns="http://www.w3.org/2000/svg" viewBox="30.854 5 160.14600000000002 244" font-family="&quot;Hiragino Sans&quot;, &quot;Yu Gothic&quot;, &quot;Noto Sans CJK JP&quot;, sans-serif" shape-rendering="geometricPrecision" version="1.1" width="1051" height="1600" preserveAspectRatio="xMidYMid meet"><g><path d="M 100 22 L 100 33.2" fill="none" stroke="#000" stroke-width="0.4" stroke-linecap="butt" stroke-linejoin="miter"/></g><g><path d="M 100 50 L 100 61.2" fill="none" stroke="#000" stroke-width="0.4" stroke-linecap="butt" stroke-linejoin="miter"/></g><g><path d="M 100 78 L 100 89.2" fill="none" stroke="#000" stroke-width="0.4" stroke-linecap="butt" stroke-linejoin="miter"/></g><g><path d="M 100 106 L 100 113 L 77 113 L 77 117.2" fill="none" stroke="#000" stroke-width="0.4" stroke-linecap="butt" stroke-linejoin="miter"/><text x="94.94" y="119.4" font-size="2.4" fill="#000" text-anchor="middle" dominant-baseline="alphabetic">yes</text></g><g><path d="M 100 106 L 100 113 L 123 113 L 123 117.2" fill="none" stroke="#000" stroke-width="0.4" stroke-linecap="butt" stroke-linejoin="miter"/><text x="117.94" y="109" font-size="2.4" fill="#000" text-anchor="middle" dominant-baseline="alphabetic">no match or stale</text></g><g><path d="M 77 134 L 77 141 L 54 141 L 54 145.2" fill="none" stroke="#000" stroke-width="0.4" stroke-linecap="butt" stroke-linejoin="miter"/><text x="59.06" y="137" font-size="2.4" fill="#000" text-anchor="middle" dominant-baseline="alphabetic">approved and local gate passes</text></g><g><path d="M 77 134 L 77 141 L 100 141 L 100 145.2" fill="none" stroke="#000" stroke-width="0.4" stroke-linecap="butt" stroke-linejoin="miter"/><text x="88.5" y="147.4" font-size="2.4" fill="#000" text-anchor="middle" dominant-baseline="alphabetic">gate missing or forbidden action</text></g><g><path d="M 72 155 L 77 155 L 77 183 L 79.2 183" fill="none" stroke="#000" stroke-width="0.4" stroke-linecap="butt" stroke-linejoin="miter"/></g><g><path d="M 118 183 L 174 183 L 174 155 L 166.8 155" fill="none" stroke="#000" stroke-width="0.4" stroke-linecap="butt" stroke-linejoin="miter"/><text x="170" y="169" font-size="2.4" fill="#000" text-anchor="end" dominant-baseline="middle">visible success signal</text></g><g><path d="M 100 190 L 100 201.2" fill="none" stroke="#000" stroke-width="0.4" stroke-linecap="butt" stroke-linejoin="miter"/><text x="104" y="197" font-size="2.4" fill="#000" text-anchor="start" dominant-baseline="middle">blocked or ambiguous</text></g><g><path d="M 123 134 L 123 141 L 146 141 L 146 145.2" fill="none" stroke="#000" stroke-width="0.4" stroke-linecap="butt" stroke-linejoin="miter"/></g><g><path d="M 100 218 L 100 229.2" fill="none" stroke="#000" stroke-width="0.4" stroke-linecap="butt" stroke-linejoin="miter"/><text x="104" y="225" font-size="2.4" fill="#000" text-anchor="start" dominant-baseline="middle">task permits diagnosis</text></g><g><path d="M 118 211 L 181 211 L 181 155 L 120.8 155" fill="none" stroke="#000" stroke-width="0.4" stroke-linecap="butt" stroke-linejoin="miter"/><text x="177" y="191.4" font-size="2.4" fill="#000" text-anchor="end" dominant-baseline="middle">external action not approved</text></g><g><path d="M 118 239 L 188 239 L 188 71 L 120.8 71" fill="none" stroke="#000" stroke-width="0.4" stroke-linecap="butt" stroke-linejoin="miter"/><text x="184" y="107.96000000000001" font-size="2.4" fill="#000" text-anchor="end" dominant-baseline="middle">new evidence updates route choice</text></g><g><polygon points="100,36 101.25,33.2 98.75,33.2" fill="#000" stroke="#000" stroke-width="0"/></g><g><polygon points="100,64 101.25,61.2 98.75,61.2" fill="#000" stroke="#000" stroke-width="0"/></g><g><polygon points="100,92 101.25,89.2 98.75,89.2" fill="#000" stroke="#000" stroke-width="0"/></g><g><polygon points="77,120 78.25,117.2 75.75,117.2" fill="#000" stroke="#000" stroke-width="0"/></g><g><polygon points="123,120 124.25,117.2 121.75,117.2" fill="#000" stroke="#000" stroke-width="0"/></g><g><polygon points="54,148 55.25,145.2 52.75,145.2" fill="#000" stroke="#000" stroke-width="0"/></g><g><polygon points="100,148 101.25,145.2 98.75,145.2" fill="#000" stroke="#000" stroke-width="0"/></g><g><polygon points="82,183 79.2,181.75 79.2,184.25" fill="#000" stroke="#000" stroke-width="0"/></g><g><polygon points="164,155 166.8,156.25 166.8,153.75" fill="#000" stroke="#000" stroke-width="0"/></g><g><polygon points="100,204 101.25,201.2 98.75,201.2" fill="#000" stroke="#000" stroke-width="0"/></g><g><polygon points="146,148 147.25,145.2 144.75,145.2" fill="#000" stroke="#000" stroke-width="0"/></g><g><polygon points="100,232 101.25,229.2 98.75,229.2" fill="#000" stroke="#000" stroke-width="0"/></g><g><polygon points="118,155 120.8,156.25 120.8,153.75" fill="#000" stroke="#000" stroke-width="0"/></g><g><polygon points="118,71 120.8,72.25 120.8,69.75" fill="#000" stroke="#000" stroke-width="0"/></g><g><rect x="82" y="8" width="36" height="14" rx="7" ry="7" fill="white" stroke="#000" stroke-width="0.4"/><text x="100" y="14.328000000000001" font-size="2.8" fill="#000" text-anchor="middle">S100</text><text x="100" y="17.688000000000002" font-size="2.8" fill="#000" text-anchor="middle">New Codex task or phase boundary</text></g><g><rect x="82" y="36" width="36" height="14" fill="white" stroke="#000" stroke-width="0.4"/><text x="100" y="42.328" font-size="2.8" fill="#000" text-anchor="middle">S110</text><text x="100" y="45.688" font-size="2.8" fill="#000" text-anchor="middle">Run Skill Router Preflight</text></g><g><rect x="82" y="64" width="36" height="14" fill="white" stroke="#000" stroke-width="0.4"/><text x="100" y="70.328" font-size="2.8" fill="#000" text-anchor="middle">S120</text><text x="100" y="73.688" font-size="2.8" fill="#000" text-anchor="middle">Route Memory Index Lookup</text></g><g><polygon points="100,92 121.6,99 100,106 78.4,99" fill="white" stroke="#000" stroke-width="0.4"/><text x="100" y="98.328" font-size="2.8" fill="#000" text-anchor="middle">S130</text><text x="100" y="101.688" font-size="2.8" fill="#000" text-anchor="middle">Exact positive match and no negative trigger?</text></g><g><rect x="59" y="120" width="36" height="14" fill="white" stroke="#000" stroke-width="0.4"/><text x="77" y="126.328" font-size="2.8" fill="#000" text-anchor="middle">S140</text><text x="77" y="129.68800000000002" font-size="2.8" fill="#000" text-anchor="middle">Check gates and permissions</text></g><g><rect x="105" y="120" width="36" height="14" fill="white" stroke="#000" stroke-width="0.4"/><text x="123" y="126.328" font-size="2.8" fill="#000" text-anchor="middle">S180</text><text x="123" y="129.68800000000002" font-size="2.8" fill="#000" text-anchor="middle">Normal Skill route without route-memory match</text></g><g><rect x="36" y="148" width="36" height="14" fill="white" stroke="#000" stroke-width="0.4"/><text x="54" y="154.32799999999997" font-size="2.8" fill="#000" text-anchor="middle">S150</text><text x="54" y="157.688" font-size="2.8" fill="#000" text-anchor="middle">Use canonical first action</text></g><g><rect x="82" y="148" width="36" height="14" rx="7" ry="7" fill="white" stroke="#000" stroke-width="0.4"/><text x="100" y="154.32799999999997" font-size="2.8" fill="#000" text-anchor="middle">S900</text><text x="100" y="157.688" font-size="2.8" fill="#000" text-anchor="middle">Stop: permission, provider, browser, MCP, connector, install, or evidence gate</text></g><g><rect x="128" y="148" width="36" height="14" rx="7" ry="7" fill="white" stroke="#000" stroke-width="0.4"/><text x="146" y="154.32799999999997" font-size="2.8" fill="#000" text-anchor="middle">S170</text><text x="146" y="157.688" font-size="2.8" fill="#000" text-anchor="middle">Continue selected Skill workflow</text></g><g><rect x="82" y="176" width="36" height="14" fill="white" stroke="#000" stroke-width="0.4"/><text x="100" y="182.32799999999997" font-size="2.8" fill="#000" text-anchor="middle">S160</text><text x="100" y="185.688" font-size="2.8" fill="#000" text-anchor="middle">Verify route success signal</text></g><g><rect x="82" y="204" width="36" height="14" fill="white" stroke="#000" stroke-width="0.4"/><text x="100" y="210.32799999999997" font-size="2.8" fill="#000" text-anchor="middle">S190</text><text x="100" y="213.688" font-size="2.8" fill="#000" text-anchor="middle">Unknown blocker during execution</text></g><g><rect x="82" y="232" width="36" height="14" fill="white" stroke="#000" stroke-width="0.4"/><text x="100" y="238.32799999999997" font-size="2.8" fill="#000" text-anchor="middle">S200</text><text x="100" y="241.688" font-size="2.8" fill="#000" text-anchor="middle">Local diagnosis plus conditional world lane or sidecar</text></g></svg>