<?xml version="1.0" encoding="UTF-8"?>
<svg xmlns="http://www.w3.org/2000/svg" viewBox="27.856000000000016 5 122.02799999999999 188" font-family="&quot;Hiragino Sans&quot;, &quot;Yu Gothic&quot;, &quot;Noto Sans CJK JP&quot;, sans-serif" shape-rendering="geometricPrecision" version="1.1" width="1039" height="1600" preserveAspectRatio="xMidYMid meet"><g><path d="M 100 22 L 100 33.2" fill="none" stroke="#000" stroke-width="0.4" stroke-linecap="butt" stroke-linejoin="miter"/></g><g><path d="M 100 50 L 100 61.2" fill="none" stroke="#000" stroke-width="0.4" stroke-linecap="butt" stroke-linejoin="miter"/></g><g><path d="M 100 78 L 100 89.2" fill="none" stroke="#000" stroke-width="0.4" stroke-linecap="butt" stroke-linejoin="miter"/></g><g><path d="M 100 106 L 100 117.2" fill="none" stroke="#000" stroke-width="0.4" stroke-linecap="butt" stroke-linejoin="miter"/></g><g><path d="M 100 134 L 100 141 L 77 141 L 77 145.2" fill="none" stroke="#000" stroke-width="0.4" stroke-linecap="butt" stroke-linejoin="miter"/><text x="82.06" y="137" font-size="2.4" fill="#000" text-anchor="middle" dominant-baseline="alphabetic">hook, plugin, MCP, provider, or auto-apply</text></g><g><path d="M 100 134 L 100 141 L 123 141 L 123 145.2" fill="none" stroke="#000" stroke-width="0.4" stroke-linecap="butt" stroke-linejoin="miter"/><text x="111.5" y="147.4" font-size="2.4" fill="#000" text-anchor="middle" dominant-baseline="alphabetic">report-only local result</text></g><g><path d="M 105 155 L 100 155 L 100 183 L 97.8 183" fill="none" stroke="#000" stroke-width="0.4" stroke-linecap="butt" stroke-linejoin="miter"/><text x="104" y="169" font-size="2.4" fill="#000" text-anchor="start" dominant-baseline="middle">accepted</text></g><g><path d="M 123 162 L 123 173.2" fill="none" stroke="#000" stroke-width="0.4" stroke-linecap="butt" stroke-linejoin="miter"/><text x="119" y="165.08" font-size="2.4" fill="#000" text-anchor="end" dominant-baseline="middle">rejected or pending</text></g><g><path d="M 95 183 L 102.2 183" fill="none" stroke="#000" stroke-width="0.4" stroke-linecap="butt" stroke-linejoin="miter"/></g><g><polygon points="100,36 101.25,33.2 98.75,33.2" fill="#000" stroke="#000" stroke-width="0"/></g><g><polygon points="100,64 101.25,61.2 98.75,61.2" fill="#000" stroke="#000" stroke-width="0"/></g><g><polygon points="100,92 101.25,89.2 98.75,89.2" fill="#000" stroke="#000" stroke-width="0"/></g><g><polygon points="100,120 101.25,117.2 98.75,117.2" fill="#000" stroke="#000" stroke-width="0"/></g><g><polygon points="77,148 78.25,145.2 75.75,145.2" fill="#000" stroke="#000" stroke-width="0"/></g><g><polygon points="123,148 124.25,145.2 121.75,145.2" fill="#000" stroke="#000" stroke-width="0"/></g><g><polygon points="95,183 97.8,184.25 97.8,181.75" fill="#000" stroke="#000" stroke-width="0"/></g><g><polygon points="123,176 124.25,173.2 121.75,173.2" fill="#000" stroke="#000" stroke-width="0"/></g><g><polygon points="105,183 102.2,181.75 102.2,184.25" fill="#000" stroke="#000" stroke-width="0"/></g><g><rect x="82" y="8" width="36" height="14" rx="7" ry="7" fill="white" stroke="#000" stroke-width="0.4"/><text x="100" y="14.328000000000001" font-size="2.8" fill="#000" text-anchor="middle">S100</text><text x="100" y="17.688000000000002" font-size="2.8" fill="#000" text-anchor="middle">Failed run, user request, or review finding</text></g><g><rect x="82" y="36" width="36" height="14" fill="white" stroke="#000" stroke-width="0.4"/><text x="100" y="42.328" font-size="2.8" fill="#000" text-anchor="middle">S110</text><text x="100" y="45.688" font-size="2.8" fill="#000" text-anchor="middle">Create SkillLifecycleInput</text></g><g><rect x="82" y="64" width="36" height="14" fill="white" stroke="#000" stroke-width="0.4"/><text x="100" y="70.328" font-size="2.8" fill="#000" text-anchor="middle">S120</text><text x="100" y="73.688" font-size="2.8" fill="#000" text-anchor="middle">Attach ImprovementSignal or candidate report</text></g><g><rect x="82" y="92" width="36" height="14" fill="white" stroke="#000" stroke-width="0.4"/><text x="100" y="98.328" font-size="2.8" fill="#000" text-anchor="middle">S130</text><text x="100" y="101.688" font-size="2.8" fill="#000" text-anchor="middle">Run replay and qualifier</text></g><g><rect x="82" y="120" width="36" height="14" fill="white" stroke="#000" stroke-width="0.4"/><text x="100" y="126.328" font-size="2.8" fill="#000" text-anchor="middle">S140</text><text x="100" y="129.68800000000002" font-size="2.8" fill="#000" text-anchor="middle">Run over-implementation guard canary</text></g><g><rect x="59" y="148" width="36" height="14" rx="7" ry="7" fill="white" stroke="#000" stroke-width="0.4"/><text x="77" y="154.32799999999997" font-size="2.8" fill="#000" text-anchor="middle">S900</text><text x="77" y="157.688" font-size="2.8" fill="#000" text-anchor="middle">Stop: automatic Skill growth, hook, plugin, MCP, or provider</text></g><g><rect x="105" y="148" width="36" height="14" fill="white" stroke="#000" stroke-width="0.4"/><text x="123" y="154.32799999999997" font-size="2.8" fill="#000" text-anchor="middle">S150</text><text x="123" y="157.688" font-size="2.8" fill="#000" text-anchor="middle">Human accept or reject decision</text></g><g><rect x="59" y="176" width="36" height="14" fill="white" stroke="#000" stroke-width="0.4"/><text x="77" y="182.32799999999997" font-size="2.8" fill="#000" text-anchor="middle">S160</text><text x="77" y="185.688" font-size="2.8" fill="#000" text-anchor="middle">Manifest validation</text></g><g><rect x="105" y="176" width="36" height="14" rx="7" ry="7" fill="white" stroke="#000" stroke-width="0.4"/><text x="123" y="182.32799999999997" font-size="2.8" fill="#000" text-anchor="middle">S170</text><text x="123" y="185.688" font-size="2.8" fill="#000" text-anchor="middle">Proposal-only lifecycle report</text></g></svg>