<?xml version="1.0" encoding="UTF-8"?>
<svg xmlns="http://www.w3.org/2000/svg" viewBox="-4.132000000000012 5 241.338 160" font-family="&quot;Hiragino Sans&quot;, &quot;Yu Gothic&quot;, &quot;Noto Sans CJK JP&quot;, sans-serif" shape-rendering="geometricPrecision" version="1.1" width="1600" height="1061" preserveAspectRatio="xMidYMid meet"><g><path d="M 100 22 L 100 33.2" fill="none" stroke="#000" stroke-width="0.4" stroke-linecap="butt" stroke-linejoin="miter"/></g><g><path d="M 100 50 L 100 61.2" fill="none" stroke="#000" stroke-width="0.4" stroke-linecap="butt" stroke-linejoin="miter"/><text x="104" y="57" font-size="2.4" fill="#000" text-anchor="start" dominant-baseline="middle">source, paper, repo, X item</text></g><g><path d="M 82 71 L 63 71 L 63 99 L 46.8 99" fill="none" stroke="#000" stroke-width="0.4" stroke-linecap="butt" stroke-linejoin="miter"/><text x="59" y="85" font-size="2.4" fill="#000" text-anchor="end" dominant-baseline="middle">provenance missing</text></g><g><path d="M 100 78 L 100 85 L 72 85 L 72 89.2" fill="none" stroke="#000" stroke-width="0.4" stroke-linecap="butt" stroke-linejoin="miter"/><text x="78.16" y="81" font-size="2.4" fill="#000" text-anchor="middle" dominant-baseline="alphabetic">dependency needed</text></g><g><path d="M 100 78 L 100 85 L 118 85 L 118 89.2" fill="none" stroke="#000" stroke-width="0.4" stroke-linecap="butt" stroke-linejoin="miter"/><text x="114.04" y="81" font-size="2.4" fill="#000" text-anchor="middle" dominant-baseline="alphabetic">provider/API needed</text></g><g><path d="M 118 71 L 132 71 L 132 99 L 143.2 99" fill="none" stroke="#000" stroke-width="0.4" stroke-linecap="butt" stroke-linejoin="miter"/><text x="136" y="85" font-size="2.4" fill="#000" text-anchor="start" dominant-baseline="middle">MCP, hook, connector, browser edit</text></g><g><path d="M 118 71 L 155 71 L 155 99 L 189.2 99" fill="none" stroke="#000" stroke-width="0.4" stroke-linecap="butt" stroke-linejoin="miter"/><text x="136.5" y="67" font-size="2.4" fill="#000" text-anchor="middle" dominant-baseline="alphabetic">not adopted</text></g><g><path d="M 72 106 L 72 113 L 77 113 L 77 117.2" fill="none" stroke="#000" stroke-width="0.4" stroke-linecap="butt" stroke-linejoin="miter"/></g><g><path d="M 100 99 L 97.5 99 L 97.5 126.7" fill="none" stroke="#000" stroke-width="0.4" stroke-linecap="butt" stroke-linejoin="miter"/></g><g><path d="M 146 99 L 120.5 99 L 120.5 127 L 97.8 127" fill="none" stroke="#000" stroke-width="0.4" stroke-linecap="butt" stroke-linejoin="miter"/></g><g><path d="M 192 99 L 166.5 99 L 166.5 127 L 143.8 127" fill="none" stroke="#000" stroke-width="0.4" stroke-linecap="butt" stroke-linejoin="miter"/><text x="170.5" y="113" font-size="2.4" fill="#000" text-anchor="start" dominant-baseline="middle">local fixture possible</text></g><g><path d="M 123 134 L 123 141 L 100 141 L 100 145.2" fill="none" stroke="#000" stroke-width="0.4" stroke-linecap="butt" stroke-linejoin="miter"/></g><g><polygon points="100,36 101.25,33.2 98.75,33.2" fill="#000" stroke="#000" stroke-width="0"/></g><g><polygon points="100,64 101.25,61.2 98.75,61.2" fill="#000" stroke="#000" stroke-width="0"/></g><g><polygon points="44,99 46.8,100.25 46.8,97.75" fill="#000" stroke="#000" stroke-width="0"/></g><g><polygon points="72,92 73.25,89.2 70.75,89.2" fill="#000" stroke="#000" stroke-width="0"/></g><g><polygon points="118,92 119.25,89.2 116.75,89.2" fill="#000" stroke="#000" stroke-width="0"/></g><g><polygon points="146,99 143.2,97.75 143.2,100.25" fill="#000" stroke="#000" stroke-width="0"/></g><g><polygon points="192,99 189.2,97.75 189.2,100.25" fill="#000" stroke="#000" stroke-width="0"/></g><g><polygon points="77,120 78.25,117.2 75.75,117.2" fill="#000" stroke="#000" stroke-width="0"/></g><g><polygon points="95,127 97.8,128.25 97.8,125.75" fill="#000" stroke="#000" stroke-width="0"/></g><g><polygon points="95,127 97.8,128.25 97.8,125.75" fill="#000" stroke="#000" stroke-width="0"/></g><g><polygon points="141,127 143.8,128.25 143.8,125.75" fill="#000" stroke="#000" stroke-width="0"/></g><g><polygon points="100,148 101.25,145.2 98.75,145.2" fill="#000" stroke="#000" stroke-width="0"/></g><g><rect x="82" y="8" width="36" height="14" rx="7" ry="7" fill="white" stroke="#000" stroke-width="0.4"/><text x="100" y="14.328000000000001" font-size="2.8" fill="#000" text-anchor="middle">S100</text><text x="100" y="17.688000000000002" font-size="2.8" fill="#000" text-anchor="middle">Source or tool candidate appears</text></g><g><rect x="82" y="36" width="36" height="14" fill="white" stroke="#000" stroke-width="0.4"/><text x="100" y="42.328" font-size="2.8" fill="#000" text-anchor="middle">S110</text><text x="100" y="45.688" font-size="2.8" fill="#000" text-anchor="middle">Classify candidate kind</text></g><g><rect x="82" y="64" width="36" height="14" fill="white" stroke="#000" stroke-width="0.4"/><text x="100" y="70.328" font-size="2.8" fill="#000" text-anchor="middle">S120</text><text x="100" y="73.688" font-size="2.8" fill="#000" text-anchor="middle">Local read-only source review</text></g><g><rect x="8" y="92" width="36" height="14" rx="7" ry="7" fill="white" stroke="#000" stroke-width="0.4"/><text x="26" y="98.328" font-size="2.8" fill="#000" text-anchor="middle">S910</text><text x="26" y="101.688" font-size="2.8" fill="#000" text-anchor="middle">Stop: provenance or license missing</text></g><g><rect x="54" y="92" width="36" height="14" fill="white" stroke="#000" stroke-width="0.4"/><text x="72" y="98.328" font-size="2.8" fill="#000" text-anchor="middle">S130</text><text x="72" y="101.688" font-size="2.8" fill="#000" text-anchor="middle">Dependency install gate</text></g><g><rect x="100" y="92" width="36" height="14" fill="white" stroke="#000" stroke-width="0.4"/><text x="118" y="98.328" font-size="2.8" fill="#000" text-anchor="middle">S140</text><text x="118" y="101.688" font-size="2.8" fill="#000" text-anchor="middle">Provider or API gate</text></g><g><rect x="146" y="92" width="36" height="14" fill="white" stroke="#000" stroke-width="0.4"/><text x="164" y="98.328" font-size="2.8" fill="#000" text-anchor="middle">S150</text><text x="164" y="101.688" font-size="2.8" fill="#000" text-anchor="middle">MCP, hook, connector, or browser-edit gate</text></g><g><rect x="192" y="92" width="36" height="14" fill="white" stroke="#000" stroke-width="0.4"/><text x="210" y="98.328" font-size="2.8" fill="#000" text-anchor="middle">S160</text><text x="210" y="101.688" font-size="2.8" fill="#000" text-anchor="middle">Reference-only or disabled lock</text></g><g><rect x="59" y="120" width="36" height="14" rx="7" ry="7" fill="white" stroke="#000" stroke-width="0.4"/><text x="77" y="126.328" font-size="2.8" fill="#000" text-anchor="middle">S900</text><text x="77" y="129.68800000000002" font-size="2.8" fill="#000" text-anchor="middle">Stop: explicit approval required</text></g><g><rect x="105" y="120" width="36" height="14" fill="white" stroke="#000" stroke-width="0.4"/><text x="123" y="126.328" font-size="2.8" fill="#000" text-anchor="middle">S170</text><text x="123" y="129.68800000000002" font-size="2.8" fill="#000" text-anchor="middle">Local canary or fixture</text></g><g><rect x="82" y="148" width="36" height="14" rx="7" ry="7" fill="white" stroke="#000" stroke-width="0.4"/><text x="100" y="154.32799999999997" font-size="2.8" fill="#000" text-anchor="middle">S180</text><text x="100" y="157.688" font-size="2.8" fill="#000" text-anchor="middle">Eligible for project work-state</text></g></svg>