<?xml version="1.0" encoding="UTF-8"?>
<svg xmlns="http://www.w3.org/2000/svg" viewBox="33.708000000000006 5 129.826 300" font-family="&quot;Hiragino Sans&quot;, &quot;Yu Gothic&quot;, &quot;Noto Sans CJK JP&quot;, sans-serif" shape-rendering="geometricPrecision" version="1.1" width="693" height="1600" preserveAspectRatio="xMidYMid meet"><g><path d="M 100 22 L 100 33.2" fill="none" stroke="#000" stroke-width="0.4" stroke-linecap="butt" stroke-linejoin="miter"/></g><g><path d="M 100 50 L 100 57 L 77 57 L 77 61.2" fill="none" stroke="#000" stroke-width="0.4" stroke-linecap="butt" stroke-linejoin="miter"/><text x="94.94" y="63.4" font-size="2.4" fill="#000" text-anchor="middle" dominant-baseline="alphabetic">No</text></g><g><path d="M 100 50 L 100 57 L 123 57 L 123 61.2" fill="none" stroke="#000" stroke-width="0.4" stroke-linecap="butt" stroke-linejoin="miter"/><text x="105.06" y="63.4" font-size="2.4" fill="#000" text-anchor="middle" dominant-baseline="alphabetic">Yes</text></g><g><path d="M 123 78 L 123 85 L 100 85 L 100 89.2" fill="none" stroke="#000" stroke-width="0.4" stroke-linecap="butt" stroke-linejoin="miter"/></g><g><path d="M 100 106 L 100 113 L 73.4 113 L 73.4 117.2" fill="none" stroke="#000" stroke-width="0.4" stroke-linecap="butt" stroke-linejoin="miter"/><text x="94.148" y="119.4" font-size="2.4" fill="#000" text-anchor="middle" dominant-baseline="alphabetic">Yes</text></g><g><path d="M 100 106 L 100 113 L 123 113 L 123 117.2" fill="none" stroke="#000" stroke-width="0.4" stroke-linecap="butt" stroke-linejoin="miter"/><text x="111.5" y="109" font-size="2.4" fill="#000" text-anchor="middle" dominant-baseline="alphabetic">No</text></g><g><path d="M 123 134 L 123 145.2" fill="none" stroke="#000" stroke-width="0.4" stroke-linecap="butt" stroke-linejoin="miter"/><text x="127" y="141" font-size="2.4" fill="#000" text-anchor="start" dominant-baseline="middle">Yes</text></g><g><path d="M 144.6 127 L 154.6 127 L 154.6 71 L 97.8 71" fill="none" stroke="#000" stroke-width="0.4" stroke-linecap="butt" stroke-linejoin="miter"/><text x="150.6" y="99" font-size="2.4" fill="#000" text-anchor="end" dominant-baseline="middle">No</text></g><g><path d="M 73.4 134 L 73.4 141 L 77 141 L 77 145.2" fill="none" stroke="#000" stroke-width="0.4" stroke-linecap="butt" stroke-linejoin="miter"/></g><g><path d="M 105 155 L 97.8 155" fill="none" stroke="#000" stroke-width="0.4" stroke-linecap="butt" stroke-linejoin="miter"/></g><g><path d="M 77 162 L 77 173.2" fill="none" stroke="#000" stroke-width="0.4" stroke-linecap="butt" stroke-linejoin="miter"/><text x="81" y="169" font-size="2.4" fill="#000" text-anchor="start" dominant-baseline="middle">Pass</text></g><g><path d="M 95 155 L 100 155 L 100 183 L 102.2 183" fill="none" stroke="#000" stroke-width="0.4" stroke-linecap="butt" stroke-linejoin="miter"/><text x="104" y="169" font-size="2.4" fill="#000" text-anchor="start" dominant-baseline="middle">Fail</text></g><g><path d="M 77 190 L 77 197 L 100 197 L 100 201.2" fill="none" stroke="#000" stroke-width="0.4" stroke-linecap="butt" stroke-linejoin="miter"/></g><g><path d="M 100 218 L 100 229.2" fill="none" stroke="#000" stroke-width="0.4" stroke-linecap="butt" stroke-linejoin="miter"/></g><g><path d="M 100 246 L 100 257.2" fill="none" stroke="#000" stroke-width="0.4" stroke-linecap="butt" stroke-linejoin="miter"/></g><g><path d="M 100 274 L 100 281 L 77 281 L 77 285.2" fill="none" stroke="#000" stroke-width="0.4" stroke-linecap="butt" stroke-linejoin="miter"/><text x="94.94" y="287.4" font-size="2.4" fill="#000" text-anchor="middle" dominant-baseline="alphabetic">Yes</text></g><g><path d="M 100 274 L 100 281 L 123 281 L 123 285.2" fill="none" stroke="#000" stroke-width="0.4" stroke-linecap="butt" stroke-linejoin="miter"/><text x="105.06" y="287.4" font-size="2.4" fill="#000" text-anchor="middle" dominant-baseline="alphabetic">No</text></g><g><path d="M 95 295 L 102.2 295" fill="none" stroke="#000" stroke-width="0.4" stroke-linecap="butt" stroke-linejoin="miter"/></g><g><polygon points="100,36 101.25,33.2 98.75,33.2" fill="#000" stroke="#000" stroke-width="0"/></g><g><polygon points="77,64 78.25,61.2 75.75,61.2" fill="#000" stroke="#000" stroke-width="0"/></g><g><polygon points="123,64 124.25,61.2 121.75,61.2" fill="#000" stroke="#000" stroke-width="0"/></g><g><polygon points="100,92 101.25,89.2 98.75,89.2" fill="#000" stroke="#000" stroke-width="0"/></g><g><polygon points="73.4,120 74.65,117.2 72.15,117.2" fill="#000" stroke="#000" stroke-width="0"/></g><g><polygon points="123,120 124.25,117.2 121.75,117.2" fill="#000" stroke="#000" stroke-width="0"/></g><g><polygon points="123,148 124.25,145.2 121.75,145.2" fill="#000" stroke="#000" stroke-width="0"/></g><g><polygon points="95,71 97.8,72.25 97.8,69.75" fill="#000" stroke="#000" stroke-width="0"/></g><g><polygon points="77,148 78.25,145.2 75.75,145.2" fill="#000" stroke="#000" stroke-width="0"/></g><g><polygon points="95,155 97.8,156.25 97.8,153.75" fill="#000" stroke="#000" stroke-width="0"/></g><g><polygon points="77,176 78.25,173.2 75.75,173.2" fill="#000" stroke="#000" stroke-width="0"/></g><g><polygon points="105,183 102.2,181.75 102.2,184.25" fill="#000" stroke="#000" stroke-width="0"/></g><g><polygon points="100,204 101.25,201.2 98.75,201.2" fill="#000" stroke="#000" stroke-width="0"/></g><g><polygon points="100,232 101.25,229.2 98.75,229.2" fill="#000" stroke="#000" stroke-width="0"/></g><g><polygon points="100,260 101.25,257.2 98.75,257.2" fill="#000" stroke="#000" stroke-width="0"/></g><g><polygon points="77,288 78.25,285.2 75.75,285.2" fill="#000" stroke="#000" stroke-width="0"/></g><g><polygon points="123,288 124.25,285.2 121.75,285.2" fill="#000" stroke="#000" stroke-width="0"/></g><g><polygon points="105,295 102.2,293.75 102.2,296.25" fill="#000" stroke="#000" stroke-width="0"/></g><g><rect x="82" y="8" width="36" height="14" rx="7" ry="7" fill="white" stroke="#000" stroke-width="0.4"/><text x="100" y="14.328000000000001" font-size="2.8" fill="#000" text-anchor="middle">S100</text><text x="100" y="17.688000000000002" font-size="2.8" fill="#000" text-anchor="middle">Start Codex planning or review task</text></g><g><polygon points="100,36 121.6,43 100,50 78.4,43" fill="white" stroke="#000" stroke-width="0.4"/><text x="100" y="42.328" font-size="2.8" fill="#000" text-anchor="middle">S110</text><text x="100" y="45.688" font-size="2.8" fill="#000" text-anchor="middle">Is active text context too large?</text></g><g><rect x="59" y="64" width="36" height="14" rx="7" ry="7" fill="white" stroke="#000" stroke-width="0.4"/><text x="77" y="70.328" font-size="2.8" fill="#000" text-anchor="middle">S120</text><text x="77" y="73.688" font-size="2.8" fill="#000" text-anchor="middle">Use normal Markdown pointer</text></g><g><rect x="105" y="64" width="36" height="14" fill="white" stroke="#000" stroke-width="0.4"/><text x="123" y="70.328" font-size="2.8" fill="#000" text-anchor="middle">S130</text><text x="123" y="73.688" font-size="2.8" fill="#000" text-anchor="middle">Classify context shape</text></g><g><polygon points="100,92 121.6,99 100,106 78.4,99" fill="white" stroke="#000" stroke-width="0.4"/><text x="100" y="98.328" font-size="2.8" fill="#000" text-anchor="middle">S140</text><text x="100" y="101.688" font-size="2.8" fill="#000" text-anchor="middle">Operational state, phase, candidate, or gate?</text></g><g><rect x="55.400000000000006" y="120" width="36" height="14" fill="white" stroke="#000" stroke-width="0.4"/><text x="73.4" y="126.328" font-size="2.8" fill="#000" text-anchor="middle">S150</text><text x="73.4" y="129.68800000000002" font-size="2.8" fill="#000" text-anchor="middle">Update canonical WBS JSON</text></g><g><polygon points="123,120 144.6,127 123,134 101.4,127" fill="white" stroke="#000" stroke-width="0.4"/><text x="123" y="126.328" font-size="2.8" fill="#000" text-anchor="middle">S160</text><text x="123" y="129.68800000000002" font-size="2.8" fill="#000" text-anchor="middle">Structure, route, state machine, or boundary?</text></g><g><rect x="59" y="148" width="36" height="14" fill="white" stroke="#000" stroke-width="0.4"/><text x="77" y="154.32799999999997" font-size="2.8" fill="#000" text-anchor="middle">S180</text><text x="77" y="157.688" font-size="2.8" fill="#000" text-anchor="middle">Validate structured sources</text></g><g><rect x="105" y="148" width="36" height="14" fill="white" stroke="#000" stroke-width="0.4"/><text x="123" y="154.32799999999997" font-size="2.8" fill="#000" text-anchor="middle">S170</text><text x="123" y="157.688" font-size="2.8" fill="#000" text-anchor="middle">Update project PDG source</text></g><g><rect x="59" y="176" width="36" height="14" fill="white" stroke="#000" stroke-width="0.4"/><text x="77" y="182.32799999999997" font-size="2.8" fill="#000" text-anchor="middle">S190</text><text x="77" y="185.688" font-size="2.8" fill="#000" text-anchor="middle">Update pointer-map JSON</text></g><g><rect x="105" y="176" width="36" height="14" rx="7" ry="7" fill="white" stroke="#000" stroke-width="0.4"/><text x="123" y="182.32799999999997" font-size="2.8" fill="#000" text-anchor="middle">S900</text><text x="123" y="185.688" font-size="2.8" fill="#000" text-anchor="middle">Stop at provider, MCP, hook, or browser-edit gate</text></g><g><rect x="82" y="204" width="36" height="14" fill="white" stroke="#000" stroke-width="0.4"/><text x="100" y="210.32799999999997" font-size="2.8" fill="#000" text-anchor="middle">S200</text><text x="100" y="213.688" font-size="2.8" fill="#000" text-anchor="middle">Reference pointer from Markdown</text></g><g><rect x="82" y="232" width="36" height="14" fill="white" stroke="#000" stroke-width="0.4"/><text x="100" y="238.32799999999997" font-size="2.8" fill="#000" text-anchor="middle">S210</text><text x="100" y="241.688" font-size="2.8" fill="#000" text-anchor="middle">Load full source only when detail is needed</text></g><g><polygon points="100,260 121.6,267 100,274 78.4,267" fill="white" stroke="#000" stroke-width="0.4"/><text x="100" y="266.328" font-size="2.8" fill="#000" text-anchor="middle">S220</text><text x="100" y="269.688" font-size="2.8" fill="#000" text-anchor="middle">Evidence claim needed?</text></g><g><rect x="59" y="288" width="36" height="14" fill="white" stroke="#000" stroke-width="0.4"/><text x="77" y="294.328" font-size="2.8" fill="#000" text-anchor="middle">S230</text><text x="77" y="297.688" font-size="2.8" fill="#000" text-anchor="middle">Restore source bundle, context chunks, and citations</text></g><g><rect x="105" y="288" width="36" height="14" rx="7" ry="7" fill="white" stroke="#000" stroke-width="0.4"/><text x="123" y="294.328" font-size="2.8" fill="#000" text-anchor="middle">S240</text><text x="123" y="297.688" font-size="2.8" fill="#000" text-anchor="middle">Keep visual artifact as review only</text></g></svg>