<?xml version="1.0" encoding="UTF-8"?>
<svg xmlns="http://www.w3.org/2000/svg" viewBox="55.477999999999994 5 119.522 328" font-family="&quot;Hiragino Sans&quot;, &quot;Yu Gothic&quot;, &quot;Noto Sans CJK JP&quot;, sans-serif" shape-rendering="geometricPrecision" version="1.1" width="584" height="1600" preserveAspectRatio="xMidYMid meet"><g><path d="M 100 22 L 100 33.2" fill="none" stroke="#000" stroke-width="0.4" stroke-linecap="butt" stroke-linejoin="miter"/></g><g><path d="M 100 50 L 100 57 L 77 57 L 77 61.2" fill="none" stroke="#000" stroke-width="0.4" stroke-linecap="butt" stroke-linejoin="miter"/><text x="94.94" y="63.4" font-size="2.4" fill="#000" text-anchor="middle" dominant-baseline="alphabetic">Yes</text></g><g><path d="M 100 50 L 100 57 L 123 57 L 123 61.2" fill="none" stroke="#000" stroke-width="0.4" stroke-linecap="butt" stroke-linejoin="miter"/><text x="105.06" y="63.4" font-size="2.4" fill="#000" text-anchor="middle" dominant-baseline="alphabetic">No</text></g><g><path d="M 77 78 L 77 85 L 100 85 L 100 89.2" fill="none" stroke="#000" stroke-width="0.4" stroke-linecap="butt" stroke-linejoin="miter"/></g><g><path d="M 100 106 L 100 117.2" fill="none" stroke="#000" stroke-width="0.4" stroke-linecap="butt" stroke-linejoin="miter"/></g><g><path d="M 100 134 L 100 145.2" fill="none" stroke="#000" stroke-width="0.4" stroke-linecap="butt" stroke-linejoin="miter"/><text x="104" y="141" font-size="2.4" fill="#000" text-anchor="start" dominant-baseline="middle">Yes</text></g><g><path d="M 121.6 127 L 158 127 L 158 71 L 143.8 71" fill="none" stroke="#000" stroke-width="0.4" stroke-linecap="butt" stroke-linejoin="miter"/><text x="139.8" y="123" font-size="2.4" fill="#000" text-anchor="middle" dominant-baseline="alphabetic">No</text></g><g><path d="M 100 162 L 100 173.2" fill="none" stroke="#000" stroke-width="0.4" stroke-linecap="butt" stroke-linejoin="miter"/></g><g><path d="M 100 190 L 100 201.2" fill="none" stroke="#000" stroke-width="0.4" stroke-linecap="butt" stroke-linejoin="miter"/><text x="104" y="197" font-size="2.4" fill="#000" text-anchor="start" dominant-baseline="middle">Yes</text></g><g><path d="M 121.6 183 L 165 183 L 165 71 L 143.8 71" fill="none" stroke="#000" stroke-width="0.4" stroke-linecap="butt" stroke-linejoin="miter"/><text x="143.3" y="179" font-size="2.4" fill="#000" text-anchor="middle" dominant-baseline="alphabetic">No</text></g><g><path d="M 100 218 L 100 229.2" fill="none" stroke="#000" stroke-width="0.4" stroke-linecap="butt" stroke-linejoin="miter"/></g><g><path d="M 100 246 L 100 257.2" fill="none" stroke="#000" stroke-width="0.4" stroke-linecap="butt" stroke-linejoin="miter"/><text x="104" y="253" font-size="2.4" fill="#000" text-anchor="start" dominant-baseline="middle">Yes</text></g><g><path d="M 121.6 239 L 151 239 L 151 211 L 120.8 211" fill="none" stroke="#000" stroke-width="0.4" stroke-linecap="butt" stroke-linejoin="miter"/><text x="134.5" y="207" font-size="2.4" fill="#000" text-anchor="middle" dominant-baseline="alphabetic">No</text></g><g><path d="M 100 274 L 100 285.2" fill="none" stroke="#000" stroke-width="0.4" stroke-linecap="butt" stroke-linejoin="miter"/></g><g><path d="M 100 302 L 100 313.2" fill="none" stroke="#000" stroke-width="0.4" stroke-linecap="butt" stroke-linejoin="miter"/><text x="104" y="309" font-size="2.4" fill="#000" text-anchor="start" dominant-baseline="middle">Yes</text></g><g><path d="M 121.6 295 L 172 295 L 172 71 L 143.8 71" fill="none" stroke="#000" stroke-width="0.4" stroke-linecap="butt" stroke-linejoin="miter"/><text x="146.8" y="291" font-size="2.4" fill="#000" text-anchor="middle" dominant-baseline="alphabetic">No</text></g><g><polygon points="100,36 101.25,33.2 98.75,33.2" fill="#000" stroke="#000" stroke-width="0"/></g><g><polygon points="77,64 78.25,61.2 75.75,61.2" fill="#000" stroke="#000" stroke-width="0"/></g><g><polygon points="123,64 124.25,61.2 121.75,61.2" fill="#000" stroke="#000" stroke-width="0"/></g><g><polygon points="100,92 101.25,89.2 98.75,89.2" fill="#000" stroke="#000" stroke-width="0"/></g><g><polygon points="100,120 101.25,117.2 98.75,117.2" fill="#000" stroke="#000" stroke-width="0"/></g><g><polygon points="100,148 101.25,145.2 98.75,145.2" fill="#000" stroke="#000" stroke-width="0"/></g><g><polygon points="141,71 143.8,72.25 143.8,69.75" fill="#000" stroke="#000" stroke-width="0"/></g><g><polygon points="100,176 101.25,173.2 98.75,173.2" fill="#000" stroke="#000" stroke-width="0"/></g><g><polygon points="100,204 101.25,201.2 98.75,201.2" fill="#000" stroke="#000" stroke-width="0"/></g><g><polygon points="141,71 143.8,72.25 143.8,69.75" fill="#000" stroke="#000" stroke-width="0"/></g><g><polygon points="100,232 101.25,229.2 98.75,229.2" fill="#000" stroke="#000" stroke-width="0"/></g><g><polygon points="100,260 101.25,257.2 98.75,257.2" fill="#000" stroke="#000" stroke-width="0"/></g><g><polygon points="118,211 120.8,212.25 120.8,209.75" fill="#000" stroke="#000" stroke-width="0"/></g><g><polygon points="100,288 101.25,285.2 98.75,285.2" fill="#000" stroke="#000" stroke-width="0"/></g><g><polygon points="100,316 101.25,313.2 98.75,313.2" fill="#000" stroke="#000" stroke-width="0"/></g><g><polygon points="141,71 143.8,72.25 143.8,69.75" fill="#000" stroke="#000" stroke-width="0"/></g><g><rect x="82" y="8" width="36" height="14" rx="7" ry="7" fill="white" stroke="#000" stroke-width="0.4"/><text x="100" y="14.328000000000001" font-size="2.8" fill="#000" text-anchor="middle">S100</text><text x="100" y="17.688000000000002" font-size="2.8" fill="#000" text-anchor="middle">Start item 11 WBS Viewer adoption</text></g><g><polygon points="100,36 121.6,43 100,50 78.4,43" fill="white" stroke="#000" stroke-width="0.4"/><text x="100" y="42.328" font-size="2.8" fill="#000" text-anchor="middle">S110</text><text x="100" y="45.688" font-size="2.8" fill="#000" text-anchor="middle">Source review passed?</text></g><g><rect x="59" y="64" width="36" height="14" fill="white" stroke="#000" stroke-width="0.4"/><text x="77" y="70.328" font-size="2.8" fill="#000" text-anchor="middle">S120</text><text x="77" y="73.688" font-size="2.8" fill="#000" text-anchor="middle">Vendor pinned WBS Viewer</text></g><g><rect x="105" y="64" width="36" height="14" rx="7" ry="7" fill="white" stroke="#000" stroke-width="0.4"/><text x="123" y="70.328" font-size="2.8" fill="#000" text-anchor="middle">S900</text><text x="123" y="73.688" font-size="2.8" fill="#000" text-anchor="middle">Stop at gate</text></g><g><rect x="82" y="92" width="36" height="14" fill="white" stroke="#000" stroke-width="0.4"/><text x="100" y="98.328" font-size="2.8" fill="#000" text-anchor="middle">S130</text><text x="100" y="101.688" font-size="2.8" fill="#000" text-anchor="middle">Generate 35 item WBS JSON</text></g><g><polygon points="100,120 121.6,127 100,134 78.4,127" fill="white" stroke="#000" stroke-width="0.4"/><text x="100" y="126.328" font-size="2.8" fill="#000" text-anchor="middle">S140</text><text x="100" y="129.68800000000002" font-size="2.8" fill="#000" text-anchor="middle">WBS render check passed?</text></g><g><rect x="82" y="148" width="36" height="14" fill="white" stroke="#000" stroke-width="0.4"/><text x="100" y="154.32799999999997" font-size="2.8" fill="#000" text-anchor="middle">S150</text><text x="100" y="157.688" font-size="2.8" fill="#000" text-anchor="middle">Start item 35 pdgkit adoption</text></g><g><polygon points="100,176 121.6,183 100,190 78.4,183" fill="white" stroke="#000" stroke-width="0.4"/><text x="100" y="182.32799999999997" font-size="2.8" fill="#000" text-anchor="middle">S160</text><text x="100" y="185.688" font-size="2.8" fill="#000" text-anchor="middle">Source and dependency review passed?</text></g><g><rect x="82" y="204" width="36" height="14" fill="white" stroke="#000" stroke-width="0.4"/><text x="100" y="210.32799999999997" font-size="2.8" fill="#000" text-anchor="middle">S170</text><text x="100" y="213.688" font-size="2.8" fill="#000" text-anchor="middle">Draft PDG source</text></g><g><polygon points="100,232 121.6,239 100,246 78.4,239" fill="white" stroke="#000" stroke-width="0.4"/><text x="100" y="238.32799999999997" font-size="2.8" fill="#000" text-anchor="middle">S180</text><text x="100" y="241.688" font-size="2.8" fill="#000" text-anchor="middle">PDG validate passed?</text></g><g><rect x="82" y="260" width="36" height="14" fill="white" stroke="#000" stroke-width="0.4"/><text x="100" y="266.328" font-size="2.8" fill="#000" text-anchor="middle">S190</text><text x="100" y="269.688" font-size="2.8" fill="#000" text-anchor="middle">Render SVG</text></g><g><polygon points="100,288 121.6,295 100,302 78.4,295" fill="white" stroke="#000" stroke-width="0.4"/><text x="100" y="294.328" font-size="2.8" fill="#000" text-anchor="middle">S200</text><text x="100" y="297.688" font-size="2.8" fill="#000" text-anchor="middle">Adopt limited PDG lane?</text></g><g><rect x="82" y="316" width="36" height="14" rx="7" ry="7" fill="white" stroke="#000" stroke-width="0.4"/><text x="100" y="322.328" font-size="2.8" fill="#000" text-anchor="middle">S210</text><text x="100" y="325.688" font-size="2.8" fill="#000" text-anchor="middle">Keep vendored WBS and PDG canaries</text></g></svg>