<?xml version="1.0" encoding="UTF-8"?>
<svg xmlns="http://www.w3.org/2000/svg" width="1800" height="1120" viewBox="0 0 1800 1120">
<defs>
  <marker id="arrow" markerWidth="13" markerHeight="13" refX="11" refY="6.5" orient="auto"><path d="M0,0 L13,6.5 L0,13 Z" fill="#234e8f"/></marker>
  <marker id="openArrow" markerWidth="14" markerHeight="14" refX="12" refY="7" orient="auto"><path d="M1,1 L13,7 L1,13" fill="none" stroke="#234e8f" stroke-width="2"/></marker>
  <style>
    text { font-family: "Yu Gothic", "Meiryo", "Noto Sans CJK JP", "Aptos", "Segoe UI", sans-serif; }
  </style>
</defs>
<rect width="100%" height="100%" fill="#ffffff"/>
<text x="74" y="82" font-size="44" font-weight="800" text-anchor="start" fill="#1f4e79"><tspan x="74" dy="0">UMLユースケース図：research_x の利用場面</tspan></text><text x="78" y="122" font-size="20" font-weight="600" text-anchor="start" fill="#50606f"><tspan x="78" dy="0">誰が、どの境界で、何を実行・確認・承認するか</tspan></text>
<circle cx="140" cy="255" r="24" fill="#ffffff" stroke="#234e8f" stroke-width="2"/><line x1="140" y1="279" x2="140" y2="353" stroke="#234e8f" stroke-width="2"/><line x1="90" y1="307" x2="190" y2="307" stroke="#234e8f" stroke-width="2"/><line x1="140" y1="353" x2="92" y2="415" stroke="#234e8f" stroke-width="2"/><line x1="140" y1="353" x2="188" y2="415" stroke="#234e8f" stroke-width="2"/><text x="140" y="460" font-size="20" font-weight="800" text-anchor="middle" fill="#1f2933"><tspan x="140" dy="0">利用者</tspan></text><circle cx="140" cy="620" r="24" fill="#ffffff" stroke="#234e8f" stroke-width="2"/><line x1="140" y1="644" x2="140" y2="718" stroke="#234e8f" stroke-width="2"/><line x1="90" y1="672" x2="190" y2="672" stroke="#234e8f" stroke-width="2"/><line x1="140" y1="718" x2="92" y2="780" stroke="#234e8f" stroke-width="2"/><line x1="140" y1="718" x2="188" y2="780" stroke="#234e8f" stroke-width="2"/><text x="140" y="825" font-size="20" font-weight="800" text-anchor="middle" fill="#1f2933"><tspan x="140" dy="0">AI</tspan><tspan x="140" dy="26">エージェント</tspan></text><circle cx="1660" cy="255" r="24" fill="#ffffff" stroke="#234e8f" stroke-width="2"/><line x1="1660" y1="279" x2="1660" y2="353" stroke="#234e8f" stroke-width="2"/><line x1="1610" y1="307" x2="1710" y2="307" stroke="#234e8f" stroke-width="2"/><line x1="1660" y1="353" x2="1612" y2="415" stroke="#234e8f" stroke-width="2"/><line x1="1660" y1="353" x2="1708" y2="415" stroke="#234e8f" stroke-width="2"/><text x="1660" y="460" font-size="20" font-weight="800" text-anchor="middle" fill="#1f2933"><tspan x="1660" dy="0">開発者</tspan></text><circle cx="1660" cy="620" r="24" fill="#ffffff" stroke="#234e8f" stroke-width="2"/><line x1="1660" y1="644" x2="1660" y2="718" stroke="#234e8f" stroke-width="2"/><line x1="1610" y1="672" x2="1710" y2="672" stroke="#234e8f" stroke-width="2"/><line x1="1660" y1="718" x2="1612" y2="780" stroke="#234e8f" stroke-width="2"/><line x1="1660" y1="718" x2="1708" y2="780" stroke="#234e8f" stroke-width="2"/><text x="1660" y="825" font-size="20" font-weight="800" text-anchor="middle" fill="#1f2933"><tspan x="1660" dy="0">承認者</tspan></text><rect x="300" y="165" width="1200" height="770" rx="10" fill="#fbfdff" stroke="#7b8da0" stroke-width="2"/><text x="900" y="214" font-size="27" font-weight="850" text-anchor="middle" fill="#1f4e79"><tspan x="900" dy="0">research_x ローカル記憶検索システム</tspan></text><ellipse cx="520" cy="333" rx="150" ry="48" fill="#edf4fb" stroke="#234e8f" stroke-width="2"/><text x="520" y="327.5" font-size="20" font-weight="700" text-anchor="middle" fill="#1f2933"><tspan x="520" dy="0">Xデータを取得</tspan><tspan x="520" dy="25">認証状態を準備</tspan></text><ellipse cx="900" cy="333" rx="160" ry="48" fill="#edf4fb" stroke="#234e8f" stroke-width="2"/><text x="900" y="327.5" font-size="20" font-weight="700" text-anchor="middle" fill="#1f2933"><tspan x="900" dy="0">共有保存へ記録</tspan><tspan x="900" dy="25">重複と引用関係を統合</tspan></text><ellipse cx="1280" cy="333" rx="150" ry="48" fill="#edf4fb" stroke="#234e8f" stroke-width="2"/><text x="1280" y="327.5" font-size="20" font-weight="700" text-anchor="middle" fill="#1f2933"><tspan x="1280" dy="0">コーパスを再構築</tspan><tspan x="1280" dy="25">検索文書を生成</tspan></text><ellipse cx="540" cy="528" rx="160" ry="48" fill="#edf4fb" stroke="#234e8f" stroke-width="2"/><text x="540" y="522.5" font-size="20" font-weight="700" text-anchor="middle" fill="#1f2933"><tspan x="540" dy="0">ローカル検索</tspan><tspan x="540" dy="25">全文検索・属性・関係</tspan></text><ellipse cx="925" cy="528" rx="165" ry="48" fill="#edf4fb" stroke="#234e8f" stroke-width="2"/><text x="925" y="522.5" font-size="20" font-weight="700" text-anchor="middle" fill="#1f2933"><tspan x="925" dy="0">ソース束を復元</tspan><tspan x="925" dy="25">投稿・メディア・引用</tspan></text><ellipse cx="1325" cy="528" rx="165" ry="48" fill="#edf4fb" stroke="#234e8f" stroke-width="2"/><text x="1325" y="522.5" font-size="20" font-weight="700" text-anchor="middle" fill="#1f2933"><tspan x="1325" dy="0">文脈チャンク作成</tspan><tspan x="1325" dy="25">引用候補を付与</tspan></text><ellipse cx="730" cy="733" rx="165" ry="48" fill="#edf4fb" stroke="#234e8f" stroke-width="2"/><text x="730" y="727.5" font-size="20" font-weight="700" text-anchor="middle" fill="#1f2933"><tspan x="730" dy="0">引用付き回答</tspan><tspan x="730" dy="25">不足時は保留</tspan></text><ellipse cx="1130" cy="733" rx="165" ry="48" fill="#edf4fb" stroke="#234e8f" stroke-width="2"/><text x="1130" y="727.5" font-size="20" font-weight="700" text-anchor="middle" fill="#1f2933"><tspan x="1130" dy="0">実行履歴監査</tspan><tspan x="1130" dy="25">状態と停止理由を確認</tspan></text><ellipse cx="1395" cy="818" rx="150" ry="48" fill="#fff0f0" stroke="#c62828" stroke-width="2"/><text x="1395" y="812.5" font-size="20" font-weight="700" text-anchor="middle" fill="#1f2933"><tspan x="1395" dy="0">外部API承認</tspan><tspan x="1395" dy="25">予算ガードを通す</tspan></text><line x1="220" y1="325" x2="370" y2="320" stroke="#234e8f" stroke-width="2.4" marker-end="url(#arrow)"/><line x1="220" y1="680" x2="390" y2="515" stroke="#234e8f" stroke-width="2.4" marker-end="url(#arrow)"/><line x1="220" y1="680" x2="565" y2="730" stroke="#234e8f" stroke-width="2.4" marker-end="url(#arrow)"/><line x1="1530" y1="345" x2="1432" y2="333" stroke="#234e8f" stroke-width="2.4" marker-end="url(#arrow)"/><line x1="1530" y1="680" x2="1370" y2="815" stroke="#c62828" stroke-width="2.4" marker-end="url(#arrow)"/><text x="1450" y="737.5" font-size="17" font-weight="700" text-anchor="middle" fill="#c62828"><tspan x="1450" dy="0">承認</tspan></text><line x1="670" y1="333" x2="740" y2="333" stroke="#234e8f" stroke-width="2.4" marker-end="url(#arrow)"/><line x1="1060" y1="333" x2="1130" y2="333" stroke="#234e8f" stroke-width="2.4" marker-end="url(#arrow)"/><line x1="700" y1="528" x2="760" y2="528" stroke="#234e8f" stroke-width="2.4" marker-end="url(#arrow)"/><line x1="1090" y1="528" x2="1160" y2="528" stroke="#234e8f" stroke-width="2.4" marker-end="url(#arrow)"/><line x1="710" y1="653" x2="650" y2="685" stroke="#234e8f" stroke-width="2.4" marker-end="url(#arrow)"/><line x1="1010" y1="576" x2="990" y2="685" stroke="#234e8f" stroke-width="2.4" marker-end="url(#arrow)"/><line x1="1230" y1="576" x2="1280" y2="770" stroke="#c62828" stroke-width="2.4" stroke-dasharray="10 8" marker-end="url(#arrow)"/><text x="1255" y="663" font-size="17" font-weight="700" text-anchor="middle" fill="#c62828"><tspan x="1255" dy="0">外部利用時のみ</tspan></text><rect x="560" y="875" width="680" height="55" rx="4" fill="#fff8df" stroke="#b08900" stroke-width="2"/><text x="900" y="908.8" font-size="18" font-weight="650" text-anchor="middle" fill="#1f2933"><tspan x="900" dy="0">図は確認用。回答根拠はソース束・文脈チャンク・引用で確認する。</tspan></text>
</svg>