<?xml version="1.0" encoding="UTF-8"?>
<svg xmlns="http://www.w3.org/2000/svg" width="1600" height="1000" viewBox="0 0 1600 1000">
<defs>
  <marker id="arrow" markerWidth="12" markerHeight="12" refX="10" refY="6" orient="auto"><path d="M0,0 L12,6 L0,12 Z" fill="#0d32b2"/></marker>
  <marker id="openArrow" markerWidth="14" markerHeight="14" refX="12" refY="7" orient="auto"><path d="M1,1 L13,7 L1,13" fill="none" stroke="#0d32b2" stroke-width="2"/></marker>
  <style>
    text { font-family: "Yu Gothic", "Meiryo", "Aptos", "Segoe UI", sans-serif; }
  </style>
</defs>
<rect width="100%" height="100%" fill="#ffffff"/>
<text x="72" y="90" font-size="44" font-weight="700" text-anchor="start" fill="#244766"><tspan x="72" dy="0">UML Use Case: research_x利用者視点</tspan></text>
<circle cx="145" cy="250" r="24" fill="#ffffff" stroke="#0d32b2" stroke-width="2"/><line x1="145" y1="274" x2="145" y2="346" stroke="#0d32b2" stroke-width="2"/><line x1="99" y1="298" x2="191" y2="298" stroke="#0d32b2" stroke-width="2"/><line x1="145" y1="346" x2="101" y2="404" stroke="#0d32b2" stroke-width="2"/><line x1="145" y1="346" x2="189" y2="404" stroke="#0d32b2" stroke-width="2"/><text x="145" y="448" font-size="21" font-weight="700" text-anchor="middle" fill="#1f2933"><tspan x="145" dy="0">開発者</tspan><tspan x="145" dy="26">SI事業者</tspan></text><circle cx="145" cy="610" r="24" fill="#ffffff" stroke="#0d32b2" stroke-width="2"/><line x1="145" y1="634" x2="145" y2="706" stroke="#0d32b2" stroke-width="2"/><line x1="99" y1="658" x2="191" y2="658" stroke="#0d32b2" stroke-width="2"/><line x1="145" y1="706" x2="101" y2="764" stroke="#0d32b2" stroke-width="2"/><line x1="145" y1="706" x2="189" y2="764" stroke="#0d32b2" stroke-width="2"/><text x="145" y="808" font-size="21" font-weight="700" text-anchor="middle" fill="#1f2933"><tspan x="145" dy="0">AI</tspan><tspan x="145" dy="26">エージェント</tspan></text><circle cx="1450" cy="430" r="24" fill="#ffffff" stroke="#0d32b2" stroke-width="2"/><line x1="1450" y1="454" x2="1450" y2="526" stroke="#0d32b2" stroke-width="2"/><line x1="1404" y1="478" x2="1496" y2="478" stroke="#0d32b2" stroke-width="2"/><line x1="1450" y1="526" x2="1406" y2="584" stroke="#0d32b2" stroke-width="2"/><line x1="1450" y1="526" x2="1494" y2="584" stroke="#0d32b2" stroke-width="2"/><text x="1450" y="628" font-size="21" font-weight="700" text-anchor="middle" fill="#1f2933"><tspan x="1450" dy="0">承認者</tspan><tspan x="1450" dy="26">Owner</tspan></text><rect x="310" y="170" width="900" height="660" rx="8" fill="#fbfcfe" stroke="#7b8da0" stroke-width="2"/><text x="760" y="215" font-size="26" font-weight="700" text-anchor="middle" fill="#244766"><tspan x="760" dy="0">research_x Memory/Search System</tspan></text><ellipse cx="510" cy="305" rx="130" ry="45" fill="#f7f8fe" stroke="#0d32b2" stroke-width="2"/><text x="510" y="305" font-size="21" font-weight="700" text-anchor="middle" fill="#1f2933"><tspan x="510" dy="0">Xデータを取得</tspan></text><ellipse cx="860" cy="305" rx="150" ry="45" fill="#f7f8fe" stroke="#0d32b2" stroke-width="2"/><text x="860" y="305" font-size="21" font-weight="700" text-anchor="middle" fill="#1f2933"><tspan x="860" dy="0">共有Storeへ正規化</tspan></text><ellipse cx="570" cy="455" rx="150" ry="45" fill="#f7f8fe" stroke="#0d32b2" stroke-width="2"/><text x="570" y="455" font-size="21" font-weight="700" text-anchor="middle" fill="#1f2933"><tspan x="570" dy="0">memory corpusを構築</tspan></text><ellipse cx="910" cy="455" rx="150" ry="45" fill="#f7f8fe" stroke="#0d32b2" stroke-width="2"/><text x="910" y="455" font-size="21" font-weight="700" text-anchor="middle" fill="#1f2933"><tspan x="910" dy="0">ローカル検索</tspan></text><ellipse cx="570" cy="605" rx="150" ry="45" fill="#f7f8fe" stroke="#0d32b2" stroke-width="2"/><text x="570" y="605" font-size="21" font-weight="700" text-anchor="middle" fill="#1f2933"><tspan x="570" dy="0">source bundle復元</tspan></text><ellipse cx="910" cy="605" rx="150" ry="45" fill="#f7f8fe" stroke="#0d32b2" stroke-width="2"/><text x="910" y="605" font-size="21" font-weight="700" text-anchor="middle" fill="#1f2933"><tspan x="910" dy="0">citation-ready context</tspan></text><ellipse cx="750" cy="745" rx="165" ry="45" fill="#f7f8fe" stroke="#0d32b2" stroke-width="2"/><text x="750" y="745" font-size="21" font-weight="700" text-anchor="middle" fill="#1f2933"><tspan x="750" dy="0">回答workflow実行</tspan></text><ellipse cx="1155" cy="745" rx="125" ry="45" fill="#f7f8fe" stroke="#0d32b2" stroke-width="2"/><text x="1155" y="745" font-size="21" font-weight="700" text-anchor="middle" fill="#1f2933"><tspan x="1155" dy="0">Provider/API承認</tspan></text><line x1="220" y1="330" x2="380" y2="305" stroke="#0d32b2" stroke-width="2.4" marker-end="url(#arrow)"/><line x1="220" y1="690" x2="420" y2="455" stroke="#0d32b2" stroke-width="2.4" marker-end="url(#arrow)"/><line x1="220" y1="690" x2="760" y2="455" stroke="#0d32b2" stroke-width="2.4" marker-end="url(#arrow)"/><line x1="220" y1="690" x2="585" y2="745" stroke="#0d32b2" stroke-width="2.4" marker-end="url(#arrow)"/><line x1="1325" y1="520" x2="1155" y2="745" stroke="#dc2626" stroke-width="2.4" marker-end="url(#arrow)"/><text x="1240" y="622.5" font-size="18" font-weight="600" text-anchor="middle" fill="#dc2626"><tspan x="1240" dy="0">承認</tspan></text><line x1="640" y1="305" x2="710" y2="305" stroke="#0d32b2" stroke-width="2.4" marker-end="url(#arrow)"/><line x1="720" y1="455" x2="760" y2="455" stroke="#0d32b2" stroke-width="2.4" marker-end="url(#arrow)"/><line x1="570" y1="650" x2="625" y2="700" stroke="#0d32b2" stroke-width="2.4" marker-end="url(#arrow)"/><line x1="910" y1="650" x2="850" y2="700" stroke="#0d32b2" stroke-width="2.4" marker-end="url(#arrow)"/>
</svg>