<?xml version="1.0" encoding="UTF-8"?>
<svg xmlns="http://www.w3.org/2000/svg" width="1600" height="1000" viewBox="0 0 1600 1000">
<defs>
  <marker id="arrow" markerWidth="12" markerHeight="12" refX="10" refY="6" orient="auto"><path d="M0,0 L12,6 L0,12 Z" fill="#0d32b2"/></marker>
  <marker id="openArrow" markerWidth="14" markerHeight="14" refX="12" refY="7" orient="auto"><path d="M1,1 L13,7 L1,13" fill="none" stroke="#0d32b2" stroke-width="2"/></marker>
  <style>
    text { font-family: "Yu Gothic", "Meiryo", "Aptos", "Segoe UI", sans-serif; }
  </style>
</defs>
<rect width="100%" height="100%" fill="#ffffff"/>
<text x="72" y="90" font-size="44" font-weight="700" text-anchor="start" fill="#244766"><tspan x="72" dy="0">UML Component: 主要実装部品</tspan></text>
<rect x="80" y="180" width="230" height="95" rx="0" fill="#f7f8fe" stroke="#0d32b2" stroke-width="2"/><text x="195" y="216.5" font-size="21" font-weight="700" text-anchor="middle" fill="#1f2933"><tspan x="195" dy="0">&lt;&lt;component&gt;&gt;</tspan><tspan x="195" dy="26">research_x CLI</tspan></text><rect x="410" y="160" width="260" height="95" rx="0" fill="#f7f8fe" stroke="#0d32b2" stroke-width="2"/><text x="540" y="196.5" font-size="21" font-weight="700" text-anchor="middle" fill="#1f2933"><tspan x="540" dy="0">&lt;&lt;component&gt;&gt;</tspan><tspan x="540" dy="26">SessionBroker</tspan></text><rect x="410" y="310" width="260" height="95" rx="0" fill="#f7f8fe" stroke="#0d32b2" stroke-width="2"/><text x="540" y="346.5" font-size="21" font-weight="700" text-anchor="middle" fill="#1f2933"><tspan x="540" dy="0">&lt;&lt;component&gt;&gt;</tspan><tspan x="540" dy="26">Acquisition Pipeline</tspan></text><rect x="760" y="250" width="260" height="95" rx="0" fill="#f7f8fe" stroke="#0d32b2" stroke-width="2"/><text x="890" y="286.5" font-size="21" font-weight="700" text-anchor="middle" fill="#1f2933"><tspan x="890" dy="0">&lt;&lt;component&gt;&gt;</tspan><tspan x="890" dy="26">Adapter Catalog</tspan></text><rect x="1110" y="250" width="260" height="95" rx="0" fill="#f7f8fe" stroke="#dc2626" stroke-width="2"/><text x="1240" y="286.5" font-size="21" font-weight="700" text-anchor="middle" fill="#1f2933"><tspan x="1240" dy="0">&lt;&lt;component&gt;&gt;</tspan><tspan x="1240" dy="26">External X Providers</tspan></text><rect x="410" y="510" width="260" height="95" rx="0" fill="#f7f8fe" stroke="#0d32b2" stroke-width="2"/><text x="540" y="546.5" font-size="21" font-weight="700" text-anchor="middle" fill="#1f2933"><tspan x="540" dy="0">&lt;&lt;component&gt;&gt;</tspan><tspan x="540" dy="26">Shared X Store</tspan></text><rect x="760" y="510" width="260" height="95" rx="0" fill="#f7f8fe" stroke="#0d32b2" stroke-width="2"/><text x="890" y="546.5" font-size="21" font-weight="700" text-anchor="middle" fill="#1f2933"><tspan x="890" dy="0">&lt;&lt;component&gt;&gt;</tspan><tspan x="890" dy="26">Memory Schema</tspan></text><rect x="1110" y="510" width="260" height="95" rx="0" fill="#f7f8fe" stroke="#0d32b2" stroke-width="2"/><text x="1240" y="546.5" font-size="21" font-weight="700" text-anchor="middle" fill="#1f2933"><tspan x="1240" dy="0">&lt;&lt;component&gt;&gt;</tspan><tspan x="1240" dy="26">Search / Context</tspan></text><rect x="760" y="700" width="260" height="95" rx="0" fill="#f7f8fe" stroke="#0d32b2" stroke-width="2"/><text x="890" y="736.5" font-size="21" font-weight="700" text-anchor="middle" fill="#1f2933"><tspan x="890" dy="0">&lt;&lt;component&gt;&gt;</tspan><tspan x="890" dy="26">Workflow / Answer</tspan></text><rect x="1110" y="700" width="260" height="95" rx="0" fill="#f7f8fe" stroke="#dc2626" stroke-width="2"/><text x="1240" y="736.5" font-size="21" font-weight="700" text-anchor="middle" fill="#1f2933"><tspan x="1240" dy="0">&lt;&lt;component&gt;&gt;</tspan><tspan x="1240" dy="26">API Budget Guard</tspan></text><line x1="310" y1="225" x2="410" y2="205" stroke="#0d32b2" stroke-width="2.4" marker-end="url(#arrow)"/><line x1="310" y1="225" x2="410" y2="355" stroke="#0d32b2" stroke-width="2.4" marker-end="url(#arrow)"/><line x1="670" y1="355" x2="760" y2="295" stroke="#0d32b2" stroke-width="2.4" marker-end="url(#arrow)"/><line x1="1020" y1="295" x2="1110" y2="295" stroke="#dc2626" stroke-width="2.4" stroke-dasharray="10 8" marker-end="url(#arrow)"/><text x="1065" y="285" font-size="18" font-weight="600" text-anchor="middle" fill="#dc2626"><tspan x="1065" dy="0">gated</tspan></text><line x1="540" y1="405" x2="540" y2="510" stroke="#0d32b2" stroke-width="2.4" marker-end="url(#arrow)"/><line x1="670" y1="555" x2="760" y2="555" stroke="#0d32b2" stroke-width="2.4" marker-end="url(#arrow)"/><line x1="1020" y1="555" x2="1110" y2="555" stroke="#0d32b2" stroke-width="2.4" marker-end="url(#arrow)"/><line x1="890" y1="605" x2="890" y2="700" stroke="#0d32b2" stroke-width="2.4" marker-end="url(#arrow)"/><line x1="1240" y1="700" x2="1020" y2="760" stroke="#dc2626" stroke-width="2.4" stroke-dasharray="10 8" marker-end="url(#arrow)"/><text x="1130" y="720" font-size="18" font-weight="600" text-anchor="middle" fill="#dc2626"><tspan x="1130" dy="0">blocks real calls</tspan></text><rect x="80" y="735" width="430" height="110" rx="0" fill="#fff7d6" stroke="#b08900" stroke-width="2"/><text x="98" y="770" font-size="19" font-weight="600" text-anchor="start" fill="#1f2933"><tspan x="98" dy="0">Provider/APIは実装部品として存在するが、</tspan><tspan x="98" dy="26">no-quota freeze中は承認なしに実行しない。</tspan></text>
</svg>