<?xml version="1.0" encoding="UTF-8"?>
<svg xmlns="http://www.w3.org/2000/svg" width="1600" height="1000" viewBox="0 0 1600 1000">
<defs>
  <marker id="arrow" markerWidth="12" markerHeight="12" refX="10" refY="6" orient="auto"><path d="M0,0 L12,6 L0,12 Z" fill="#0d32b2"/></marker>
  <marker id="openArrow" markerWidth="14" markerHeight="14" refX="12" refY="7" orient="auto"><path d="M1,1 L13,7 L1,13" fill="none" stroke="#0d32b2" stroke-width="2"/></marker>
  <style>
    text { font-family: "Yu Gothic", "Meiryo", "Aptos", "Segoe UI", sans-serif; }
  </style>
</defs>
<rect width="100%" height="100%" fill="#ffffff"/>
<text x="72" y="90" font-size="44" font-weight="700" text-anchor="start" fill="#244766"><tspan x="72" dy="0">UML Package: コード配置と依存</tspan></text>
<path d="M90 212 L90 360 L370 360 L370 212 L260 212 L235 180 L90 180 Z" fill="#f7f8fe" stroke="#0d32b2" stroke-width="2"/><text x="108" y="203" font-size="20" font-weight="700" text-anchor="start" fill="#1f2933"><tspan x="108" dy="0">research_x.cli</tspan></text><text x="114" y="260" font-size="20" font-weight="500" text-anchor="start" fill="#1f2933"><tspan x="114" dy="0">command parser</tspan></text><text x="114" y="294" font-size="20" font-weight="500" text-anchor="start" fill="#1f2933"><tspan x="114" dy="0">gates / options</tspan></text><path d="M470 182 L470 340 L810 340 L810 182 L640 182 L615 150 L470 150 Z" fill="#f7f8fe" stroke="#0d32b2" stroke-width="2"/><text x="488" y="173" font-size="20" font-weight="700" text-anchor="start" fill="#1f2933"><tspan x="488" dy="0">research_x.pipeline</tspan></text><text x="494" y="230" font-size="20" font-weight="500" text-anchor="start" fill="#1f2933"><tspan x="494" dy="0">provider chain</tspan></text><text x="494" y="264" font-size="20" font-weight="500" text-anchor="start" fill="#1f2933"><tspan x="494" dy="0">evidence write</tspan></text><text x="494" y="298" font-size="20" font-weight="500" text-anchor="start" fill="#1f2933"><tspan x="494" dy="0">merge / dedupe</tspan></text><path d="M920 182 L920 340 L1260 340 L1260 182 L1090 182 L1065 150 L920 150 Z" fill="#f7f8fe" stroke="#0d32b2" stroke-width="2"/><text x="938" y="173" font-size="20" font-weight="700" text-anchor="start" fill="#1f2933"><tspan x="938" dy="0">research_x.adapters</tspan></text><text x="944" y="230" font-size="20" font-weight="500" text-anchor="start" fill="#1f2933"><tspan x="944" dy="0">catalog</tspan></text><text x="944" y="264" font-size="20" font-weight="500" text-anchor="start" fill="#1f2933"><tspan x="944" dy="0">provider implementations</tspan></text><path d="M470 462 L470 620 L810 620 L810 462 L640 462 L615 430 L470 430 Z" fill="#f7f8fe" stroke="#0d32b2" stroke-width="2"/><text x="488" y="453" font-size="20" font-weight="700" text-anchor="start" fill="#1f2933"><tspan x="488" dy="0">research_x.x_store</tspan></text><text x="494" y="510" font-size="20" font-weight="500" text-anchor="start" fill="#1f2933"><tspan x="494" dy="0">tweets</tspan></text><text x="494" y="544" font-size="20" font-weight="500" text-anchor="start" fill="#1f2933"><tspan x="494" dy="0">bookmarks</tspan></text><text x="494" y="578" font-size="20" font-weight="500" text-anchor="start" fill="#1f2933"><tspan x="494" dy="0">media / edges</tspan></text><path d="M920 462 L920 680 L1310 680 L1310 462 L1090 462 L1065 430 L920 430 Z" fill="#f7f8fe" stroke="#0d32b2" stroke-width="2"/><text x="938" y="453" font-size="20" font-weight="700" text-anchor="start" fill="#1f2933"><tspan x="938" dy="0">research_x.memory</tspan></text><text x="944" y="510" font-size="20" font-weight="500" text-anchor="start" fill="#1f2933"><tspan x="944" dy="0">schema / corpus / search</tspan></text><text x="944" y="544" font-size="20" font-weight="500" text-anchor="start" fill="#1f2933"><tspan x="944" dy="0">context / citation</tspan></text><text x="944" y="578" font-size="20" font-weight="500" text-anchor="start" fill="#1f2933"><tspan x="944" dy="0">workflow / answer</tspan></text><text x="944" y="612" font-size="20" font-weight="500" text-anchor="start" fill="#1f2933"><tspan x="944" dy="0">api_budget / eval</tspan></text><path d="M90 552 L90 680 L370 680 L370 552 L260 552 L235 520 L90 520 Z" fill="#f7f8fe" stroke="#0d32b2" stroke-width="2"/><text x="108" y="543" font-size="20" font-weight="700" text-anchor="start" fill="#1f2933"><tspan x="108" dy="0">research_x.presentation</tspan></text><text x="114" y="600" font-size="20" font-weight="500" text-anchor="start" fill="#1f2933"><tspan x="114" dy="0">facts validator</tspan></text><text x="114" y="634" font-size="20" font-weight="500" text-anchor="start" fill="#1f2933"><tspan x="114" dy="0">slides validator</tspan></text><path d="M90 762 L90 920 L390 920 L390 762 L260 762 L235 730 L90 730 Z" fill="#f7f8fe" stroke="#0d32b2" stroke-width="2"/><text x="108" y="753" font-size="20" font-weight="700" text-anchor="start" fill="#1f2933"><tspan x="108" dy="0">tests</tspan></text><text x="114" y="810" font-size="20" font-weight="500" text-anchor="start" fill="#1f2933"><tspan x="114" dy="0">presentation</tspan></text><text x="114" y="844" font-size="20" font-weight="500" text-anchor="start" fill="#1f2933"><tspan x="114" dy="0">memory</tspan></text><text x="114" y="878" font-size="20" font-weight="500" text-anchor="start" fill="#1f2933"><tspan x="114" dy="0">boundary checks</tspan></text><line x1="370" y1="235" x2="470" y2="235" stroke="#0d32b2" stroke-width="2.4" marker-end="url(#arrow)"/><line x1="810" y1="245" x2="920" y2="245" stroke="#0d32b2" stroke-width="2.4" marker-end="url(#arrow)"/><line x1="640" y1="340" x2="640" y2="430" stroke="#0d32b2" stroke-width="2.4" marker-end="url(#arrow)"/><line x1="810" y1="525" x2="920" y2="525" stroke="#0d32b2" stroke-width="2.4" marker-end="url(#arrow)"/><line x1="240" y1="730" x2="240" y2="680" stroke="#0d32b2" stroke-width="2.4" marker-end="url(#arrow)"/><line x1="390" y1="835" x2="470" y2="610" stroke="#0d32b2" stroke-width="2.4" marker-end="url(#arrow)"/><line x1="390" y1="860" x2="920" y2="610" stroke="#0d32b2" stroke-width="2.4" marker-end="url(#arrow)"/>
</svg>