<?xml version="1.0" encoding="UTF-8"?>
<svg xmlns="http://www.w3.org/2000/svg" width="1600" height="1000" viewBox="0 0 1600 1000">
<defs>
  <marker id="arrow" markerWidth="12" markerHeight="12" refX="10" refY="6" orient="auto"><path d="M0,0 L12,6 L0,12 Z" fill="#0d32b2"/></marker>
  <marker id="openArrow" markerWidth="14" markerHeight="14" refX="12" refY="7" orient="auto"><path d="M1,1 L13,7 L1,13" fill="none" stroke="#0d32b2" stroke-width="2"/></marker>
  <style>
    text { font-family: "Yu Gothic", "Meiryo", "Aptos", "Segoe UI", sans-serif; }
  </style>
</defs>
<rect width="100%" height="100%" fill="#ffffff"/>
<text x="72" y="90" font-size="44" font-weight="700" text-anchor="start" fill="#244766"><tspan x="72" dy="0">UML Deployment: 実行配置</tspan></text>
<rect x="90" y="180" width="460" height="540" rx="0" fill="#fbfcfe" stroke="#0d32b2" stroke-width="2"/><text x="320" y="439" font-size="24" font-weight="700" text-anchor="middle" fill="#1f2933"><tspan x="320" dy="0">&lt;&lt;node&gt;&gt;</tspan><tspan x="320" dy="26">Developer Workstation</tspan></text><rect x="150" y="285" width="340" height="85" rx="0" fill="#f7f8fe" stroke="#0d32b2" stroke-width="2"/><text x="320" y="316.5" font-size="21" font-weight="700" text-anchor="middle" fill="#1f2933"><tspan x="320" dy="0">Python / uv</tspan><tspan x="320" dy="26">research_x CLI</tspan></text><rect x="150" y="410" width="340" height="85" rx="0" fill="#f7f8fe" stroke="#0d32b2" stroke-width="2"/><text x="320" y="441.5" font-size="21" font-weight="700" text-anchor="middle" fill="#1f2933"><tspan x="320" dy="0">SQLite</tspan><tspan x="320" dy="26">runs/x_data.sqlite3</tspan></text><rect x="150" y="535" width="340" height="85" rx="0" fill="#f7f8fe" stroke="#0d32b2" stroke-width="2"/><text x="320" y="566.5" font-size="21" font-weight="700" text-anchor="middle" fill="#1f2933"><tspan x="320" dy="0">Local filesystem</tspan><tspan x="320" dy="26">.secrets / runs / docs</tspan></text><rect x="690" y="210" width="350" height="160" rx="0" fill="#f7f8fe" stroke="#0d32b2" stroke-width="2"/><text x="865" y="268" font-size="21" font-weight="700" text-anchor="middle" fill="#1f2933"><tspan x="865" dy="0">&lt;&lt;execution environment&gt;&gt;</tspan><tspan x="865" dy="26">Node tooling</tspan><tspan x="865" dy="26">D2 / Marp / UML asset build</tspan></text><rect x="690" y="510" width="350" height="160" rx="0" fill="#f7f8fe" stroke="#0d32b2" stroke-width="2"/><text x="865" y="568" font-size="21" font-weight="700" text-anchor="middle" fill="#1f2933"><tspan x="865" dy="0">&lt;&lt;database&gt;&gt;</tspan><tspan x="865" dy="26">Memory tables</tspan><tspan x="865" dy="26">FTS / workflow / citations</tspan></text><rect x="1160" y="310" width="320" height="160" rx="0" fill="#f7f8fe" stroke="#dc2626" stroke-width="2"/><text x="1320" y="368" font-size="21" font-weight="700" text-anchor="middle" fill="#1f2933"><tspan x="1320" dy="0">&lt;&lt;external node&gt;&gt;</tspan><tspan x="1320" dy="26">X / Provider APIs</tspan><tspan x="1320" dy="26">承認ゲート</tspan></text><rect x="1160" y="600" width="320" height="120" rx="0" fill="#f7f8fe" stroke="#0d32b2" stroke-width="2"/><text x="1320" y="638" font-size="21" font-weight="700" text-anchor="middle" fill="#1f2933"><tspan x="1320" dy="0">&lt;&lt;artifact&gt;&gt;</tspan><tspan x="1320" dy="26">SVG / PNG</tspan><tspan x="1320" dy="26">review assets</tspan></text><line x1="490" y1="330" x2="690" y2="290" stroke="#0d32b2" stroke-width="2.4" marker-end="url(#arrow)"/><line x1="490" y1="455" x2="690" y2="590" stroke="#0d32b2" stroke-width="2.4" marker-end="url(#arrow)"/><line x1="550" y1="330" x2="1160" y2="390" stroke="#dc2626" stroke-width="2.4" stroke-dasharray="10 8" marker-end="url(#arrow)"/><text x="855" y="350" font-size="18" font-weight="600" text-anchor="middle" fill="#dc2626"><tspan x="855" dy="0">blocked by default</tspan></text><line x1="1040" y1="290" x2="1160" y2="650" stroke="#0d32b2" stroke-width="2.4" marker-end="url(#arrow)"/><rect x="760" y="760" width="620" height="110" rx="0" fill="#fff7d6" stroke="#b08900" stroke-width="2"/><text x="778" y="795" font-size="19" font-weight="600" text-anchor="start" fill="#1f2933"><tspan x="778" dy="0">秘密情報とprovider呼び出しは同じ図に置くが、</tspan><tspan x="778" dy="26">実行権限は図ではなくAGENTS/予算ゲートが決める。</tspan></text>
</svg>