<?xml version="1.0" encoding="UTF-8"?>
<svg xmlns="http://www.w3.org/2000/svg" width="1800" height="1120" viewBox="0 0 1800 1120">
<defs>
  <marker id="arrow" markerWidth="13" markerHeight="13" refX="11" refY="6.5" orient="auto"><path d="M0,0 L13,6.5 L0,13 Z" fill="#234e8f"/></marker>
  <marker id="openArrow" markerWidth="14" markerHeight="14" refX="12" refY="7" orient="auto"><path d="M1,1 L13,7 L1,13" fill="none" stroke="#234e8f" stroke-width="2"/></marker>
  <style>
    text { font-family: "Yu Gothic", "Meiryo", "Noto Sans CJK JP", "Aptos", "Segoe UI", sans-serif; }
  </style>
</defs>
<rect width="100%" height="100%" fill="#ffffff"/>
<text x="74" y="82" font-size="44" font-weight="800" text-anchor="start" fill="#1f4e79"><tspan x="74" dy="0">UML配置図：ローカル実行と外部ゲート</tspan></text><text x="78" y="122" font-size="20" font-weight="600" text-anchor="start" fill="#50606f"><tspan x="78" dy="0">外部API凍結中はローカル確認だけで閉じる</tspan></text>
<rect x="80" y="175" width="520" height="740" rx="6" fill="#fbfdff" stroke="#234e8f" stroke-width="2"/><text x="115" y="220" font-size="23" font-weight="800" text-anchor="start" fill="#1f4e79"><tspan x="115" dy="0">&lt;&lt;ノード&gt;&gt; ローカル作業PC</tspan></text><rect x="145" y="285" width="390" height="90" rx="6" fill="#edf4fb" stroke="#234e8f" stroke-width="2"/><text x="340" y="324.5" font-size="20" font-weight="700" text-anchor="middle" fill="#1f2933"><tspan x="340" dy="0">Python + uv</tspan><tspan x="340" dy="25">コマンドとテスト</tspan></text><rect x="145" y="420" width="390" height="90" rx="6" fill="#e8f7f6" stroke="#234e8f" stroke-width="2"/><text x="340" y="459.5" font-size="20" font-weight="700" text-anchor="middle" fill="#1f2933"><tspan x="340" dy="0">SQLite データベース</tspan><tspan x="340" dy="25">runs/x_data.sqlite3</tspan></text><rect x="145" y="555" width="390" height="90" rx="6" fill="#e8f7f6" stroke="#234e8f" stroke-width="2"/><text x="340" y="594.5" font-size="20" font-weight="700" text-anchor="middle" fill="#1f2933"><tspan x="340" dy="0">ファイルシステム</tspan><tspan x="340" dy="25">runs / docs / outputs</tspan></text><rect x="145" y="690" width="390" height="90" rx="6" fill="#fff0f0" stroke="#c62828" stroke-width="2"/><text x="340" y="729.5" font-size="20" font-weight="700" text-anchor="middle" fill="#1f2933"><tspan x="340" dy="0">秘密情報</tspan><tspan x="340" dy="25">.secrets / アカウントCookie</tspan></text><rect x="705" y="205" width="405" height="150" rx="6" fill="#edf7ed" stroke="#234e8f" stroke-width="2"/><text x="907.5" y="262" font-size="20" font-weight="700" text-anchor="middle" fill="#1f2933"><tspan x="907.5" dy="0">&lt;&lt;実行環境&gt;&gt;</tspan><tspan x="907.5" dy="25">ブラウザ実行</tspan><tspan x="907.5" dy="25">取得と代替経路</tspan></text><rect x="705" y="455" width="405" height="150" rx="6" fill="#e8f7f6" stroke="#234e8f" stroke-width="2"/><text x="907.5" y="512" font-size="20" font-weight="700" text-anchor="middle" fill="#1f2933"><tspan x="907.5" dy="0">&lt;&lt;データベース&gt;&gt;</tspan><tspan x="907.5" dy="25">記憶検索表</tspan><tspan x="907.5" dy="25">全文検索・文脈・引用・履歴</tspan></text><rect x="705" y="710" width="405" height="150" rx="6" fill="#fff8df" stroke="#234e8f" stroke-width="2"/><text x="907.5" y="767" font-size="20" font-weight="700" text-anchor="middle" fill="#1f2933"><tspan x="907.5" dy="0">&lt;&lt;実行環境&gt;&gt;</tspan><tspan x="907.5" dy="25">Node図表ツール</tspan><tspan x="907.5" dy="25">UML画像・図表・発表資料</tspan></text><rect x="1260" y="240" width="380" height="150" rx="6" fill="#fff0f0" stroke="#c62828" stroke-width="2"/><text x="1450" y="297" font-size="20" font-weight="700" text-anchor="middle" fill="#1f2933"><tspan x="1450" dy="0">&lt;&lt;外部ノード&gt;&gt;</tspan><tspan x="1450" dy="25">X・公開Web</tspan><tspan x="1450" dy="25">取得・読取は承認が必要</tspan></text><rect x="1260" y="560" width="380" height="150" rx="6" fill="#fff0f0" stroke="#c62828" stroke-width="2"/><text x="1450" y="617" font-size="20" font-weight="700" text-anchor="middle" fill="#1f2933"><tspan x="1450" dy="0">&lt;&lt;外部ノード&gt;&gt;</tspan><tspan x="1450" dy="25">生成AI・埋め込み・再順位付け</tspan><tspan x="1450" dy="25">予算ガード通過後のみ</tspan></text><line x1="535" y1="330" x2="705" y2="280" stroke="#234e8f" stroke-width="2.4" marker-end="url(#arrow)"/><line x1="535" y1="465" x2="705" y2="530" stroke="#234e8f" stroke-width="2.4" marker-end="url(#arrow)"/><line x1="535" y1="600" x2="705" y2="785" stroke="#234e8f" stroke-width="2.4" marker-end="url(#arrow)"/><line x1="1110" y1="280" x2="1260" y2="315" stroke="#c62828" stroke-width="2.4" stroke-dasharray="10 8" marker-end="url(#arrow)"/><text x="1185" y="287.5" font-size="17" font-weight="700" text-anchor="middle" fill="#c62828"><tspan x="1185" dy="0">要承認</tspan></text><line x1="1110" y1="530" x2="1260" y2="635" stroke="#c62828" stroke-width="2.4" stroke-dasharray="10 8" marker-end="url(#arrow)"/><text x="1185" y="572.5" font-size="17" font-weight="700" text-anchor="middle" fill="#c62828"><tspan x="1185" dy="0">要承認</tspan></text><rect x="1170" y="815" width="470" height="95" rx="4" fill="#fff8df" stroke="#b08900" stroke-width="2"/><text x="1405" y="857.3" font-size="18" font-weight="650" text-anchor="middle" fill="#1f2933"><tspan x="1405" dy="0">配置図は権限を与えない。</tspan><tspan x="1405" dy="23">外部実行はAGENTS.mdとAPI予算ガードで止める。</tspan></text>
</svg>