<?xml version="1.0" encoding="UTF-8"?>
<svg xmlns="http://www.w3.org/2000/svg" width="1800" height="1120" viewBox="0 0 1800 1120">
<defs>
  <marker id="arrow" markerWidth="13" markerHeight="13" refX="11" refY="6.5" orient="auto"><path d="M0,0 L13,6.5 L0,13 Z" fill="#234e8f"/></marker>
  <marker id="openArrow" markerWidth="14" markerHeight="14" refX="12" refY="7" orient="auto"><path d="M1,1 L13,7 L1,13" fill="none" stroke="#234e8f" stroke-width="2"/></marker>
  <style>
    text { font-family: "Yu Gothic", "Meiryo", "Noto Sans CJK JP", "Aptos", "Segoe UI", sans-serif; }
  </style>
</defs>
<rect width="100%" height="100%" fill="#ffffff"/>
<text x="74" y="82" font-size="44" font-weight="800" text-anchor="start" fill="#1f4e79"><tspan x="74" dy="0">UMLクラス図：中核データと証拠オブジェクト</tspan></text><text x="78" y="122" font-size="20" font-weight="600" text-anchor="start" fill="#50606f"><tspan x="78" dy="0">生ソースから回答まで同一物扱いしないための構造</tspan></text>
<rect x="70" y="160" width="315" height="210" rx="0" fill="#fbfdff" stroke="#234e8f" stroke-width="2"/><rect x="70" y="160" width="315" height="46" rx="0" fill="#edf4fb" stroke="#234e8f" stroke-width="2"/><text x="227.5" y="190" font-size="20" font-weight="800" text-anchor="middle" fill="#1f2933"><tspan x="227.5" dy="0">取得対象</tspan></text><line x1="70" y1="301" x2="385" y2="301" stroke="#234e8f" stroke-width="2"/><text x="84" y="236" font-size="17" font-weight="600" text-anchor="start" fill="#1f2933"><tspan x="84" dy="0">種別</tspan></text><text x="84" y="261" font-size="17" font-weight="600" text-anchor="start" fill="#1f2933"><tspan x="84" dy="0">値</tspan></text><text x="84" y="286" font-size="17" font-weight="600" text-anchor="start" fill="#1f2933"><tspan x="84" dy="0">上限</tspan></text><text x="84" y="329" font-size="17" font-weight="600" text-anchor="start" fill="#50606f"><tspan x="84" dy="0">取得対象</tspan></text><rect x="455" y="160" width="315" height="230" rx="0" fill="#fbfdff" stroke="#234e8f" stroke-width="2"/><rect x="455" y="160" width="315" height="46" rx="0" fill="#edf4fb" stroke="#234e8f" stroke-width="2"/><text x="612.5" y="190" font-size="20" font-weight="800" text-anchor="middle" fill="#1f2933"><tspan x="612.5" dy="0">取得項目</tspan></text><line x1="455" y1="326" x2="770" y2="326" stroke="#234e8f" stroke-width="2"/><text x="469" y="236" font-size="17" font-weight="600" text-anchor="start" fill="#1f2933"><tspan x="469" dy="0">取得元ID</tspan></text><text x="469" y="261" font-size="17" font-weight="600" text-anchor="start" fill="#1f2933"><tspan x="469" dy="0">URL</tspan></text><text x="469" y="286" font-size="17" font-weight="600" text-anchor="start" fill="#1f2933"><tspan x="469" dy="0">本文</tspan></text><text x="469" y="311" font-size="17" font-weight="600" text-anchor="start" fill="#1f2933"><tspan x="469" dy="0">生データ</tspan></text><text x="469" y="354" font-size="17" font-weight="600" text-anchor="start" fill="#50606f"><tspan x="469" dy="0">正規化された取得項目</tspan></text><rect x="840" y="160" width="315" height="220" rx="0" fill="#fbfdff" stroke="#234e8f" stroke-width="2"/><rect x="840" y="160" width="315" height="46" rx="0" fill="#edf4fb" stroke="#234e8f" stroke-width="2"/><text x="997.5" y="190" font-size="20" font-weight="800" text-anchor="middle" fill="#1f2933"><tspan x="997.5" dy="0">取得結果</tspan></text><line x1="840" y1="326" x2="1155" y2="326" stroke="#234e8f" stroke-width="2"/><text x="854" y="236" font-size="17" font-weight="600" text-anchor="start" fill="#1f2933"><tspan x="854" dy="0">取得部品ID</tspan></text><text x="854" y="261" font-size="17" font-weight="600" text-anchor="start" fill="#1f2933"><tspan x="854" dy="0">状態</tspan></text><text x="854" y="286" font-size="17" font-weight="600" text-anchor="start" fill="#1f2933"><tspan x="854" dy="0">項目群</tspan></text><text x="854" y="311" font-size="17" font-weight="600" text-anchor="start" fill="#1f2933"><tspan x="854" dy="0">エラー</tspan></text><text x="854" y="354" font-size="17" font-weight="600" text-anchor="start" fill="#50606f"><tspan x="854" dy="0">取得部品の結果</tspan></text><rect x="1225" y="160" width="400" height="230" rx="0" fill="#fbfdff" stroke="#234e8f" stroke-width="2"/><rect x="1225" y="160" width="400" height="46" rx="0" fill="#e8f7f6" stroke="#234e8f" stroke-width="2"/><text x="1425" y="190" font-size="20" font-weight="800" text-anchor="middle" fill="#1f2933"><tspan x="1425" dy="0">共有保存表</tspan></text><line x1="1225" y1="326" x2="1625" y2="326" stroke="#234e8f" stroke-width="2"/><text x="1239" y="236" font-size="17" font-weight="600" text-anchor="start" fill="#1f2933"><tspan x="1239" dy="0">投稿</tspan></text><text x="1239" y="261" font-size="17" font-weight="600" text-anchor="start" fill="#1f2933"><tspan x="1239" dy="0">ブックマーク</tspan></text><text x="1239" y="286" font-size="17" font-weight="600" text-anchor="start" fill="#1f2933"><tspan x="1239" dy="0">収集項目</tspan></text><text x="1239" y="311" font-size="17" font-weight="600" text-anchor="start" fill="#1f2933"><tspan x="1239" dy="0">引用関係・メディア</tspan></text><text x="1239" y="354" font-size="17" font-weight="600" text-anchor="start" fill="#50606f"><tspan x="1239" dy="0">生ソースの土台</tspan></text><rect x="70" y="470" width="355" height="210" rx="0" fill="#fbfdff" stroke="#234e8f" stroke-width="2"/><rect x="70" y="470" width="355" height="46" rx="0" fill="#edf4fb" stroke="#234e8f" stroke-width="2"/><text x="247.5" y="500" font-size="20" font-weight="800" text-anchor="middle" fill="#1f2933"><tspan x="247.5" dy="0">検索候補</tspan></text><line x1="70" y1="636" x2="425" y2="636" stroke="#234e8f" stroke-width="2"/><text x="84" y="546" font-size="17" font-weight="600" text-anchor="start" fill="#1f2933"><tspan x="84" dy="0">文書ID</tspan></text><text x="84" y="571" font-size="17" font-weight="600" text-anchor="start" fill="#1f2933"><tspan x="84" dy="0">文書種別</tspan></text><text x="84" y="596" font-size="17" font-weight="600" text-anchor="start" fill="#1f2933"><tspan x="84" dy="0">順位点</tspan></text><text x="84" y="621" font-size="17" font-weight="600" text-anchor="start" fill="#1f2933"><tspan x="84" dy="0">付加情報</tspan></text><text x="84" y="664" font-size="17" font-weight="600" text-anchor="start" fill="#50606f"><tspan x="84" dy="0">検索結果は候補</tspan></text><rect x="505" y="470" width="355" height="210" rx="0" fill="#fbfdff" stroke="#234e8f" stroke-width="2"/><rect x="505" y="470" width="355" height="46" rx="0" fill="#edf4fb" stroke="#234e8f" stroke-width="2"/><text x="682.5" y="500" font-size="20" font-weight="800" text-anchor="middle" fill="#1f2933"><tspan x="682.5" dy="0">文脈束</tspan></text><line x1="505" y1="611" x2="860" y2="611" stroke="#234e8f" stroke-width="2"/><text x="519" y="546" font-size="17" font-weight="600" text-anchor="start" fill="#1f2933"><tspan x="519" dy="0">取得候補</tspan></text><text x="519" y="571" font-size="17" font-weight="600" text-anchor="start" fill="#1f2933"><tspan x="519" dy="0">文脈チャンク</tspan></text><text x="519" y="596" font-size="17" font-weight="600" text-anchor="start" fill="#1f2933"><tspan x="519" dy="0">引用注釈</tspan></text><text x="519" y="639" font-size="17" font-weight="600" text-anchor="start" fill="#50606f"><tspan x="519" dy="0">回答入力の束</tspan></text><rect x="940" y="470" width="355" height="210" rx="0" fill="#fbfdff" stroke="#234e8f" stroke-width="2"/><rect x="940" y="470" width="355" height="46" rx="0" fill="#edf4fb" stroke="#234e8f" stroke-width="2"/><text x="1117.5" y="500" font-size="20" font-weight="800" text-anchor="middle" fill="#1f2933"><tspan x="1117.5" dy="0">文脈チャンク</tspan></text><line x1="940" y1="636" x2="1295" y2="636" stroke="#234e8f" stroke-width="2"/><text x="954" y="546" font-size="17" font-weight="600" text-anchor="start" fill="#1f2933"><tspan x="954" dy="0">ソース種別</tspan></text><text x="954" y="571" font-size="17" font-weight="600" text-anchor="start" fill="#1f2933"><tspan x="954" dy="0">ソースID</tspan></text><text x="954" y="596" font-size="17" font-weight="600" text-anchor="start" fill="#1f2933"><tspan x="954" dy="0">チャンク本文</tspan></text><text x="954" y="621" font-size="17" font-weight="600" text-anchor="start" fill="#1f2933"><tspan x="954" dy="0">付加情報</tspan></text><text x="954" y="664" font-size="17" font-weight="600" text-anchor="start" fill="#50606f"><tspan x="954" dy="0">ソース束由来</tspan></text><rect x="1375" y="470" width="355" height="210" rx="0" fill="#fbfdff" stroke="#234e8f" stroke-width="2"/><rect x="1375" y="470" width="355" height="46" rx="0" fill="#edf7ed" stroke="#234e8f" stroke-width="2"/><text x="1552.5" y="500" font-size="20" font-weight="800" text-anchor="middle" fill="#1f2933"><tspan x="1552.5" dy="0">引用注釈</tspan></text><line x1="1375" y1="636" x2="1730" y2="636" stroke="#234e8f" stroke-width="2"/><text x="1389" y="546" font-size="17" font-weight="600" text-anchor="start" fill="#1f2933"><tspan x="1389" dy="0">チャンクID</tspan></text><text x="1389" y="571" font-size="17" font-weight="600" text-anchor="start" fill="#1f2933"><tspan x="1389" dy="0">対象位置</tspan></text><text x="1389" y="596" font-size="17" font-weight="600" text-anchor="start" fill="#1f2933"><tspan x="1389" dy="0">証拠状態</tspan></text><text x="1389" y="621" font-size="17" font-weight="600" text-anchor="start" fill="#1f2933"><tspan x="1389" dy="0">信頼度</tspan></text><text x="1389" y="664" font-size="17" font-weight="600" text-anchor="start" fill="#50606f"><tspan x="1389" dy="0">根拠注釈</tspan></text><rect x="505" y="760" width="355" height="205" rx="0" fill="#fbfdff" stroke="#234e8f" stroke-width="2"/><rect x="505" y="760" width="355" height="46" rx="0" fill="#edf4fb" stroke="#234e8f" stroke-width="2"/><text x="682.5" y="790" font-size="20" font-weight="800" text-anchor="middle" fill="#1f2933"><tspan x="682.5" dy="0">実行ワークフロー</tspan></text><line x1="505" y1="926" x2="860" y2="926" stroke="#234e8f" stroke-width="2"/><text x="519" y="836" font-size="17" font-weight="600" text-anchor="start" fill="#1f2933"><tspan x="519" dy="0">履歴ID</tspan></text><text x="519" y="861" font-size="17" font-weight="600" text-anchor="start" fill="#1f2933"><tspan x="519" dy="0">状態</tspan></text><text x="519" y="886" font-size="17" font-weight="600" text-anchor="start" fill="#1f2933"><tspan x="519" dy="0">停止理由</tspan></text><text x="519" y="911" font-size="17" font-weight="600" text-anchor="start" fill="#1f2933"><tspan x="519" dy="0">手順</tspan></text><text x="519" y="954" font-size="17" font-weight="600" text-anchor="start" fill="#50606f"><tspan x="519" dy="0">実行状態</tspan></text><rect x="940" y="760" width="355" height="205" rx="0" fill="#fbfdff" stroke="#234e8f" stroke-width="2"/><rect x="940" y="760" width="355" height="46" rx="0" fill="#edf4fb" stroke="#234e8f" stroke-width="2"/><text x="1117.5" y="790" font-size="20" font-weight="800" text-anchor="middle" fill="#1f2933"><tspan x="1117.5" dy="0">記憶回答</tspan></text><line x1="940" y1="926" x2="1295" y2="926" stroke="#234e8f" stroke-width="2"/><text x="954" y="836" font-size="17" font-weight="600" text-anchor="start" fill="#1f2933"><tspan x="954" dy="0">回答ID</tspan></text><text x="954" y="861" font-size="17" font-weight="600" text-anchor="start" fill="#1f2933"><tspan x="954" dy="0">状態</tspan></text><text x="954" y="886" font-size="17" font-weight="600" text-anchor="start" fill="#1f2933"><tspan x="954" dy="0">回答本文</tspan></text><text x="954" y="911" font-size="17" font-weight="600" text-anchor="start" fill="#1f2933"><tspan x="954" dy="0">引用</tspan></text><text x="954" y="954" font-size="17" font-weight="600" text-anchor="start" fill="#50606f"><tspan x="954" dy="0">正しそうでも引用必須</tspan></text><line x1="385" y1="255" x2="455" y2="255" stroke="#234e8f" stroke-width="2.4" marker-end="url(#arrow)"/><line x1="770" y1="255" x2="840" y2="255" stroke="#234e8f" stroke-width="2.4" marker-end="url(#arrow)"/><line x1="1155" y1="255" x2="1225" y2="255" stroke="#234e8f" stroke-width="2.4" marker-end="url(#arrow)"/><path d="M1425 390 C1320 430 530 430 250 470" fill="none" stroke="#234e8f" stroke-width="2.4" stroke-dasharray="10 8" marker-end="url(#arrow)"/><text x="850" y="425" font-size="17" font-weight="700" text-anchor="middle" fill="#234e8f"><tspan x="850" dy="0">コーパス再構築</tspan></text><line x1="425" y1="565" x2="505" y2="565" stroke="#234e8f" stroke-width="2.4" marker-end="url(#arrow)"/><text x="465" y="555" font-size="17" font-weight="700" text-anchor="middle" fill="#234e8f"><tspan x="465" dy="0">復元</tspan></text><line x1="860" y1="565" x2="940" y2="565" stroke="#234e8f" stroke-width="2.4" marker-end="url(#arrow)"/><text x="900" y="555" font-size="17" font-weight="700" text-anchor="middle" fill="#234e8f"><tspan x="900" dy="0">分割</tspan></text><line x1="1295" y1="565" x2="1375" y2="565" stroke="#234e8f" stroke-width="2.4" marker-end="url(#arrow)"/><text x="1335" y="555" font-size="17" font-weight="700" text-anchor="middle" fill="#234e8f"><tspan x="1335" dy="0">注釈</tspan></text><line x1="682" y1="680" x2="682" y2="760" stroke="#234e8f" stroke-width="2.4" marker-end="url(#arrow)"/><text x="682" y="710" font-size="17" font-weight="700" text-anchor="middle" fill="#234e8f"><tspan x="682" dy="0">保存</tspan></text><line x1="1117" y1="680" x2="1117" y2="760" stroke="#234e8f" stroke-width="2.4" marker-end="url(#arrow)"/><text x="1117" y="710" font-size="17" font-weight="700" text-anchor="middle" fill="#234e8f"><tspan x="1117" dy="0">支える</tspan></text><line x1="940" y1="855" x2="860" y2="855" stroke="#234e8f" stroke-width="2.4" marker-end="url(#openArrow)"/><text x="900" y="845" font-size="17" font-weight="700" text-anchor="middle" fill="#234e8f"><tspan x="900" dy="0">履歴が保持</tspan></text><rect x="120" y="995" width="760" height="82" rx="4" fill="#fff8df" stroke="#b08900" stroke-width="2"/><text x="500" y="1020.95" font-size="17" font-weight="650" text-anchor="middle" fill="#1f2933"><tspan x="500" dy="0">不変条件:</tspan><tspan x="500" dy="21">生ソース != 検索文書 != 検索候補 != ソース束</tspan><tspan x="500" dy="21">ソース束 != 文脈チャンク != 引用 != 回答</tspan></text>
</svg>