<?xml version="1.0" encoding="UTF-8"?>
<svg xmlns="http://www.w3.org/2000/svg" width="1600" height="1000" viewBox="0 0 1600 1000">
<defs>
  <marker id="arrow" markerWidth="12" markerHeight="12" refX="10" refY="6" orient="auto"><path d="M0,0 L12,6 L0,12 Z" fill="#0d32b2"/></marker>
  <marker id="openArrow" markerWidth="14" markerHeight="14" refX="12" refY="7" orient="auto"><path d="M1,1 L13,7 L1,13" fill="none" stroke="#0d32b2" stroke-width="2"/></marker>
  <style>
    text { font-family: "Yu Gothic", "Meiryo", "Aptos", "Segoe UI", sans-serif; }
  </style>
</defs>
<rect width="100%" height="100%" fill="#ffffff"/>
<text x="72" y="90" font-size="44" font-weight="700" text-anchor="start" fill="#244766"><tspan x="72" dy="0">UML Class: 中核データ構造</tspan></text>
<rect x="80" y="170" width="300" height="140" rx="0" fill="#f7f8fe" stroke="#0d32b2" stroke-width="2"/><text x="230" y="207" font-size="20" font-weight="700" text-anchor="middle" fill="#1f2933"><tspan x="230" dy="0">AcquisitionTarget</tspan><tspan x="230" dy="26">+ kind</tspan><tspan x="230" dy="26">+ value</tspan><tspan x="230" dy="26">+ limit</tspan></text><rect x="470" y="170" width="300" height="160" rx="0" fill="#f7f8fe" stroke="#0d32b2" stroke-width="2"/><text x="620" y="206" font-size="20" font-weight="700" text-anchor="middle" fill="#1f2933"><tspan x="620" dy="0">FetchOutcome</tspan><tspan x="620" dy="26">+ adapter_id</tspan><tspan x="620" dy="26">+ status</tspan><tspan x="620" dy="26">+ items</tspan><tspan x="620" dy="26">+ error</tspan></text><rect x="860" y="170" width="300" height="160" rx="0" fill="#f7f8fe" stroke="#0d32b2" stroke-width="2"/><text x="1010" y="217" font-size="20" font-weight="700" text-anchor="middle" fill="#1f2933"><tspan x="1010" dy="0">ProviderAttempt</tspan><tspan x="1010" dy="26">+ provider_id</tspan><tspan x="1010" dy="26">+ failure_kind</tspan><tspan x="1010" dy="26">+ evidence_path</tspan></text><rect x="1240" y="170" width="300" height="160" rx="0" fill="#f7f8fe" stroke="#0d32b2" stroke-width="2"/><text x="1390" y="217" font-size="20" font-weight="700" text-anchor="middle" fill="#1f2933"><tspan x="1390" dy="0">PipelineTargetResult</tspan><tspan x="1390" dy="26">+ status</tspan><tspan x="1390" dy="26">+ items</tspan><tspan x="1390" dy="26">+ attempts</tspan></text><rect x="80" y="455" width="300" height="160" rx="0" fill="#f7f8fe" stroke="#0d32b2" stroke-width="2"/><text x="230" y="502" font-size="20" font-weight="700" text-anchor="middle" fill="#1f2933"><tspan x="230" dy="0">MemorySearchResult</tspan><tspan x="230" dy="26">+ doc_id</tspan><tspan x="230" dy="26">+ score</tspan><tspan x="230" dy="26">+ evidence_status</tspan></text><rect x="470" y="455" width="300" height="160" rx="0" fill="#f7f8fe" stroke="#0d32b2" stroke-width="2"/><text x="620" y="502" font-size="20" font-weight="700" text-anchor="middle" fill="#1f2933"><tspan x="620" dy="0">ContextBundle</tspan><tspan x="620" dy="26">+ retrieved_hits</tspan><tspan x="620" dy="26">+ context_chunks</tspan><tspan x="620" dy="26">+ citations</tspan></text><rect x="860" y="455" width="300" height="160" rx="0" fill="#f7f8fe" stroke="#0d32b2" stroke-width="2"/><text x="1010" y="502" font-size="20" font-weight="700" text-anchor="middle" fill="#1f2933"><tspan x="1010" dy="0">MemoryAnswer</tspan><tspan x="1010" dy="26">+ answer_id</tspan><tspan x="1010" dy="26">+ status</tspan><tspan x="1010" dy="26">+ citations</tspan></text><rect x="1240" y="455" width="300" height="160" rx="0" fill="#f7f8fe" stroke="#0d32b2" stroke-width="2"/><text x="1390" y="491" font-size="20" font-weight="700" text-anchor="middle" fill="#1f2933"><tspan x="1390" dy="0">MemoryWorkflow</tspan><tspan x="1390" dy="26">+ workflow_id</tspan><tspan x="1390" dy="26">+ route</tspan><tspan x="1390" dy="26">+ status</tspan><tspan x="1390" dy="26">+ stop_reason</tspan></text><rect x="840" y="730" width="300" height="140" rx="0" fill="#f7f8fe" stroke="#0d32b2" stroke-width="2"/><text x="990" y="767" font-size="20" font-weight="700" text-anchor="middle" fill="#1f2933"><tspan x="990" dy="0">WorkflowStep</tspan><tspan x="990" dy="26">+ action</tspan><tspan x="990" dy="26">+ input/output</tspan><tspan x="990" dy="26">+ status</tspan></text><rect x="1200" y="730" width="300" height="140" rx="0" fill="#f7f8fe" stroke="#0d32b2" stroke-width="2"/><text x="1350" y="767" font-size="20" font-weight="700" text-anchor="middle" fill="#1f2933"><tspan x="1350" dy="0">WorkflowRoute</tspan><tspan x="1350" dy="26">+ route</tspan><tspan x="1350" dy="26">+ reasons</tspan><tspan x="1350" dy="26">+ wants_external</tspan></text><line x1="380" y1="240" x2="470" y2="240" stroke="#0d32b2" stroke-width="2.4" marker-end="url(#arrow)"/><text x="425" y="230" font-size="18" font-weight="600" text-anchor="middle" fill="#0d32b2"><tspan x="425" dy="0">fetches</tspan></text><line x1="770" y1="250" x2="860" y2="250" stroke="#0d32b2" stroke-width="2.4" marker-end="url(#arrow)"/><text x="815" y="240" font-size="18" font-weight="600" text-anchor="middle" fill="#0d32b2"><tspan x="815" dy="0">recorded as</tspan></text><line x1="1160" y1="250" x2="1240" y2="250" stroke="#0d32b2" stroke-width="2.4" marker-end="url(#arrow)"/><text x="1200" y="240" font-size="18" font-weight="600" text-anchor="middle" fill="#0d32b2"><tspan x="1200" dy="0">aggregates</tspan></text><line x1="380" y1="535" x2="470" y2="535" stroke="#0d32b2" stroke-width="2.4" marker-end="url(#arrow)"/><text x="425" y="525" font-size="18" font-weight="600" text-anchor="middle" fill="#0d32b2"><tspan x="425" dy="0">restores into</tspan></text><line x1="770" y1="535" x2="860" y2="535" stroke="#0d32b2" stroke-width="2.4" marker-end="url(#arrow)"/><text x="815" y="525" font-size="18" font-weight="600" text-anchor="middle" fill="#0d32b2"><tspan x="815" dy="0">supports</tspan></text><line x1="1160" y1="535" x2="1240" y2="535" stroke="#0d32b2" stroke-width="2.4" marker-end="url(#arrow)"/><text x="1200" y="525" font-size="18" font-weight="600" text-anchor="middle" fill="#0d32b2"><tspan x="1200" dy="0">stored in</tspan></text><line x1="1370" y1="615" x2="990" y2="730" stroke="#0d32b2" stroke-width="2.4" marker-end="url(#openArrow)"/><text x="1180" y="662.5" font-size="18" font-weight="600" text-anchor="middle" fill="#0d32b2"><tspan x="1180" dy="0">1..*</tspan></text><line x1="1370" y1="615" x2="1350" y2="730" stroke="#0d32b2" stroke-width="2.4" marker-end="url(#openArrow)"/><text x="1360" y="662.5" font-size="18" font-weight="600" text-anchor="middle" fill="#0d32b2"><tspan x="1360" dy="0">1</tspan></text>
</svg>