<?xml version="1.0" encoding="UTF-8"?>
<svg xmlns="http://www.w3.org/2000/svg" width="1600" height="1000" viewBox="0 0 1600 1000">
<defs>
  <marker id="arrow" markerWidth="12" markerHeight="12" refX="10" refY="6" orient="auto"><path d="M0,0 L12,6 L0,12 Z" fill="#0d32b2"/></marker>
  <marker id="openArrow" markerWidth="14" markerHeight="14" refX="12" refY="7" orient="auto"><path d="M1,1 L13,7 L1,13" fill="none" stroke="#0d32b2" stroke-width="2"/></marker>
  <style>
    text { font-family: "Yu Gothic", "Meiryo", "Aptos", "Segoe UI", sans-serif; }
  </style>
</defs>
<rect width="100%" height="100%" fill="#ffffff"/>
<text x="72" y="90" font-size="44" font-weight="700" text-anchor="start" fill="#244766"><tspan x="72" dy="0">UML Activity: 取得から共有Storeまで</tspan></text>
<circle cx="140" cy="250" r="20" fill="#0d32b2"/><rect x="230" y="205" width="250" height="90" rx="20" fill="#f7f8fe" stroke="#0d32b2" stroke-width="2"/><text x="355" y="250" font-size="20" font-weight="700" text-anchor="middle" fill="#1f2933"><tspan x="355" dy="0">targetを読む</tspan></text><rect x="560" y="205" width="270" height="90" rx="20" fill="#f7f8fe" stroke="#0d32b2" stroke-width="2"/><text x="695" y="239" font-size="20" font-weight="700" text-anchor="middle" fill="#1f2933"><tspan x="695" dy="0">SessionBroker</tspan><tspan x="695" dy="26">session materialize</tspan></text><rect x="910" y="205" width="280" height="90" rx="20" fill="#f7f8fe" stroke="#0d32b2" stroke-width="2"/><text x="1050" y="239" font-size="20" font-weight="700" text-anchor="middle" fill="#1f2933"><tspan x="1050" dy="0">provider chain</tspan><tspan x="1050" dy="26">kind別に解決</tspan></text><rect x="910" y="380" width="280" height="90" rx="20" fill="#f7f8fe" stroke="#0d32b2" stroke-width="2"/><text x="1050" y="414" font-size="20" font-weight="700" text-anchor="middle" fill="#1f2933"><tspan x="1050" dy="0">adapter.fetch()</tspan><tspan x="1050" dy="26">例外を隔離</tspan></text><rect x="560" y="380" width="270" height="90" rx="20" fill="#f7f8fe" stroke="#0d32b2" stroke-width="2"/><text x="695" y="414" font-size="20" font-weight="700" text-anchor="middle" fill="#1f2933"><tspan x="695" dy="0">failure分類</tspan><tspan x="695" dy="26">evidence JSON</tspan></text><rect x="230" y="380" width="250" height="90" rx="20" fill="#f7f8fe" stroke="#0d32b2" stroke-width="2"/><text x="355" y="414" font-size="20" font-weight="700" text-anchor="middle" fill="#1f2933"><tspan x="355" dy="0">item merge</tspan><tspan x="355" dy="26">dedupe / provider追跡</tspan></text><rect x="230" y="570" width="250" height="90" rx="20" fill="#f7f8fe" stroke="#0d32b2" stroke-width="2"/><text x="355" y="615" font-size="20" font-weight="700" text-anchor="middle" fill="#1f2933"><tspan x="355" dy="0">十分な件数?</tspan></text><rect x="560" y="570" width="270" height="90" rx="20" fill="#f7f8fe" stroke="#0d32b2" stroke-width="2"/><text x="695" y="615" font-size="20" font-weight="700" text-anchor="middle" fill="#1f2933"><tspan x="695" dy="0">JSONL / SQLiteへ保存</tspan></text><rect x="910" y="570" width="280" height="90" rx="20" fill="#f7f8fe" stroke="#0d32b2" stroke-width="2"/><text x="1050" y="604" font-size="20" font-weight="700" text-anchor="middle" fill="#1f2933"><tspan x="1050" dy="0">pipeline report</tspan><tspan x="1050" dy="26">status出力</tspan></text><circle cx="1270" cy="615" r="24" fill="#ffffff" stroke="#0d32b2" stroke-width="3"/><circle cx="1270" cy="615" r="13" fill="#0d32b2"/><line x1="160" y1="250" x2="230" y2="250" stroke="#0d32b2" stroke-width="2.4" marker-end="url(#arrow)"/><line x1="480" y1="250" x2="560" y2="250" stroke="#0d32b2" stroke-width="2.4" marker-end="url(#arrow)"/><line x1="830" y1="250" x2="910" y2="250" stroke="#0d32b2" stroke-width="2.4" marker-end="url(#arrow)"/><line x1="1050" y1="295" x2="1050" y2="380" stroke="#0d32b2" stroke-width="2.4" marker-end="url(#arrow)"/><line x1="910" y1="425" x2="830" y2="425" stroke="#0d32b2" stroke-width="2.4" marker-end="url(#arrow)"/><line x1="560" y1="425" x2="480" y2="425" stroke="#0d32b2" stroke-width="2.4" marker-end="url(#arrow)"/><line x1="355" y1="470" x2="355" y2="570" stroke="#0d32b2" stroke-width="2.4" marker-end="url(#arrow)"/><line x1="480" y1="615" x2="560" y2="615" stroke="#0d32b2" stroke-width="2.4" marker-end="url(#arrow)"/><text x="520" y="605" font-size="18" font-weight="600" text-anchor="middle" fill="#0d32b2"><tspan x="520" dy="0">yes</tspan></text><line x1="830" y1="615" x2="910" y2="615" stroke="#0d32b2" stroke-width="2.4" marker-end="url(#arrow)"/><line x1="1190" y1="615" x2="1246" y2="615" stroke="#0d32b2" stroke-width="2.4" marker-end="url(#arrow)"/><path d="M355 570 C355 500 720 500 910 425" fill="none" stroke="#0d32b2" stroke-width="2.4" marker-end="url(#arrow)"/><text x="640" y="520" font-size="18" font-weight="600" text-anchor="middle" fill="#0d32b2"><tspan x="640" dy="0">no / next provider</tspan></text>
</svg>