<?xml version="1.0" encoding="UTF-8"?>
<svg xmlns="http://www.w3.org/2000/svg" width="1600" height="1000" viewBox="0 0 1600 1000">
<defs>
  <marker id="arrow" markerWidth="12" markerHeight="12" refX="10" refY="6" orient="auto"><path d="M0,0 L12,6 L0,12 Z" fill="#0d32b2"/></marker>
  <marker id="openArrow" markerWidth="14" markerHeight="14" refX="12" refY="7" orient="auto"><path d="M1,1 L13,7 L1,13" fill="none" stroke="#0d32b2" stroke-width="2"/></marker>
  <style>
    text { font-family: "Yu Gothic", "Meiryo", "Aptos", "Segoe UI", sans-serif; }
  </style>
</defs>
<rect width="100%" height="100%" fill="#ffffff"/>
<text x="72" y="90" font-size="44" font-weight="700" text-anchor="start" fill="#244766"><tspan x="72" dy="0">UML State Machine: Memory Workflow</tspan></text>
<circle cx="130" cy="235" r="20" fill="#0d32b2"/><rect x="230" y="190" width="240" height="90" rx="20" fill="#f7f8fe" stroke="#0d32b2" stroke-width="2"/><text x="350" y="224" font-size="20" font-weight="700" text-anchor="middle" fill="#1f2933"><tspan x="350" dy="0">planning</tspan><tspan x="350" dy="26">route選択</tspan></text><rect x="570" y="190" width="250" height="90" rx="20" fill="#f7f8fe" stroke="#0d32b2" stroke-width="2"/><text x="695" y="224" font-size="20" font-weight="700" text-anchor="middle" fill="#1f2933"><tspan x="695" dy="0">context</tspan><tspan x="695" dy="26">local source復元</tspan></text><rect x="930" y="190" width="250" height="90" rx="20" fill="#f7f8fe" stroke="#dc2626" stroke-width="2"/><text x="1055" y="224" font-size="20" font-weight="700" text-anchor="middle" fill="#1f2933"><tspan x="1055" dy="0">llm_context</tspan><tspan x="1055" dy="26">承認時のみ</tspan></text><rect x="570" y="410" width="250" height="90" rx="20" fill="#f7f8fe" stroke="#dc2626" stroke-width="2"/><text x="695" y="444" font-size="20" font-weight="700" text-anchor="middle" fill="#1f2933"><tspan x="695" dy="0">answer</tspan><tspan x="695" dy="26">承認時のみ</tspan></text><rect x="930" y="410" width="250" height="90" rx="20" fill="#f7f8fe" stroke="#0d32b2" stroke-width="2"/><text x="1055" y="444" font-size="20" font-weight="700" text-anchor="middle" fill="#1f2933"><tspan x="1055" dy="0">needs_review</tspan><tspan x="1055" dy="26">不足/確認待ち</tspan></text><rect x="230" y="410" width="240" height="90" rx="20" fill="#f7f8fe" stroke="#0d32b2" stroke-width="2"/><text x="350" y="444" font-size="20" font-weight="700" text-anchor="middle" fill="#1f2933"><tspan x="350" dy="0">ok</tspan><tspan x="350" dy="26">enough_evidence</tspan></text><rect x="570" y="650" width="250" height="90" rx="20" fill="#f7f8fe" stroke="#dc2626" stroke-width="2"/><text x="695" y="684" font-size="20" font-weight="700" text-anchor="middle" fill="#1f2933"><tspan x="695" dy="0">provider_gated</tspan><tspan x="695" dy="26">外部利用待ち</tspan></text><rect x="930" y="650" width="250" height="90" rx="20" fill="#f7f8fe" stroke="#0d32b2" stroke-width="2"/><text x="1055" y="684" font-size="20" font-weight="700" text-anchor="middle" fill="#1f2933"><tspan x="1055" dy="0">error</tspan><tspan x="1055" dy="26">provider/error</tspan></text><circle cx="1325" cy="455" r="24" fill="#ffffff" stroke="#0d32b2" stroke-width="3"/><circle cx="1325" cy="455" r="13" fill="#0d32b2"/><line x1="150" y1="235" x2="230" y2="235" stroke="#0d32b2" stroke-width="2.4" marker-end="url(#arrow)"/><line x1="470" y1="235" x2="570" y2="235" stroke="#0d32b2" stroke-width="2.4" marker-end="url(#arrow)"/><text x="520" y="225" font-size="18" font-weight="600" text-anchor="middle" fill="#0d32b2"><tspan x="520" dy="0">plan ok</tspan></text><line x1="820" y1="235" x2="930" y2="235" stroke="#0d32b2" stroke-width="2.4" marker-end="url(#arrow)"/><text x="875" y="225" font-size="18" font-weight="600" text-anchor="middle" fill="#0d32b2"><tspan x="875" dy="0">fresh/current</tspan></text><line x1="695" y1="280" x2="695" y2="410" stroke="#0d32b2" stroke-width="2.4" marker-end="url(#arrow)"/><text x="695" y="335" font-size="18" font-weight="600" text-anchor="middle" fill="#0d32b2"><tspan x="695" dy="0">answer requested</tspan></text><line x1="570" y1="455" x2="470" y2="455" stroke="#0d32b2" stroke-width="2.4" marker-end="url(#arrow)"/><text x="520" y="445" font-size="18" font-weight="600" text-anchor="middle" fill="#0d32b2"><tspan x="520" dy="0">citation ok</tspan></text><line x1="820" y1="455" x2="930" y2="455" stroke="#0d32b2" stroke-width="2.4" marker-end="url(#arrow)"/><text x="875" y="445" font-size="18" font-weight="600" text-anchor="middle" fill="#0d32b2"><tspan x="875" dy="0">citation_missing</tspan></text><line x1="1055" y1="500" x2="1055" y2="650" stroke="#0d32b2" stroke-width="2.4" marker-end="url(#arrow)"/><text x="1055" y="565" font-size="18" font-weight="600" text-anchor="middle" fill="#0d32b2"><tspan x="1055" dy="0">provider error</tspan></text><line x1="695" y1="500" x2="695" y2="650" stroke="#dc2626" stroke-width="2.4" stroke-dasharray="10 8" marker-end="url(#arrow)"/><text x="695" y="565" font-size="18" font-weight="600" text-anchor="middle" fill="#dc2626"><tspan x="695" dy="0">no approval</tspan></text><line x1="1180" y1="455" x2="1301" y2="455" stroke="#0d32b2" stroke-width="2.4" marker-end="url(#arrow)"/><line x1="470" y1="455" x2="1301" y2="455" stroke="#0d32b2" stroke-width="2.4" marker-end="url(#arrow)"/>
</svg>