<?xml version="1.0" encoding="UTF-8"?>
<svg xmlns="http://www.w3.org/2000/svg" width="1600" height="1000" viewBox="0 0 1600 1000">
<defs>
  <marker id="arrow" markerWidth="12" markerHeight="12" refX="10" refY="6" orient="auto"><path d="M0,0 L12,6 L0,12 Z" fill="#0d32b2"/></marker>
  <marker id="openArrow" markerWidth="14" markerHeight="14" refX="12" refY="7" orient="auto"><path d="M1,1 L13,7 L1,13" fill="none" stroke="#0d32b2" stroke-width="2"/></marker>
  <style>
    text { font-family: "Yu Gothic", "Meiryo", "Aptos", "Segoe UI", sans-serif; }
  </style>
</defs>
<rect width="100%" height="100%" fill="#ffffff"/>
<text x="72" y="90" font-size="44" font-weight="700" text-anchor="start" fill="#244766"><tspan x="72" dy="0">UML Sequence: Memory query</tspan></text>
<rect x="65" y="145" width="190" height="58" rx="0" fill="#f7f8fe" stroke="#0d32b2" stroke-width="2"/><text x="160" y="163" font-size="18" font-weight="700" text-anchor="middle" fill="#1f2933"><tspan x="160" dy="0">SI/AI</tspan><tspan x="160" dy="26">client</tspan></text><line x1="160" y1="203" x2="160" y2="860" stroke="#8ca0b3" stroke-width="2" stroke-dasharray="8 8"/><rect x="285" y="145" width="190" height="58" rx="0" fill="#f7f8fe" stroke="#0d32b2" stroke-width="2"/><text x="380" y="174" font-size="18" font-weight="700" text-anchor="middle" fill="#1f2933"><tspan x="380" dy="0">CLI</tspan></text><line x1="380" y1="203" x2="380" y2="860" stroke="#8ca0b3" stroke-width="2" stroke-dasharray="8 8"/><rect x="525" y="145" width="190" height="58" rx="0" fill="#f7f8fe" stroke="#0d32b2" stroke-width="2"/><text x="620" y="163" font-size="18" font-weight="700" text-anchor="middle" fill="#1f2933"><tspan x="620" dy="0">Memory</tspan><tspan x="620" dy="26">Workflow</tspan></text><line x1="620" y1="203" x2="620" y2="860" stroke="#8ca0b3" stroke-width="2" stroke-dasharray="8 8"/><rect x="775" y="145" width="190" height="58" rx="0" fill="#f7f8fe" stroke="#0d32b2" stroke-width="2"/><text x="870" y="163" font-size="18" font-weight="700" text-anchor="middle" fill="#1f2933"><tspan x="870" dy="0">Search /</tspan><tspan x="870" dy="26">Context</tspan></text><line x1="870" y1="203" x2="870" y2="860" stroke="#8ca0b3" stroke-width="2" stroke-dasharray="8 8"/><rect x="1025" y="145" width="190" height="58" rx="0" fill="#f7f8fe" stroke="#0d32b2" stroke-width="2"/><text x="1120" y="163" font-size="18" font-weight="700" text-anchor="middle" fill="#1f2933"><tspan x="1120" dy="0">SQLite</tspan><tspan x="1120" dy="26">DB</tspan></text><line x1="1120" y1="203" x2="1120" y2="860" stroke="#8ca0b3" stroke-width="2" stroke-dasharray="8 8"/><rect x="1275" y="145" width="190" height="58" rx="0" fill="#f7f8fe" stroke="#0d32b2" stroke-width="2"/><text x="1370" y="163" font-size="18" font-weight="700" text-anchor="middle" fill="#1f2933"><tspan x="1370" dy="0">API Budget</tspan><tspan x="1370" dy="26">Guard</tspan></text><line x1="1370" y1="203" x2="1370" y2="860" stroke="#8ca0b3" stroke-width="2" stroke-dasharray="8 8"/><rect x="611" y="270" width="18" height="480" fill="#dce8f4" stroke="#0d32b2" stroke-width="1.5"/><rect x="861" y="350" width="18" height="200" fill="#dce8f4" stroke="#0d32b2" stroke-width="1.5"/><rect x="1111" y="390" width="18" height="150" fill="#dce8f4" stroke="#0d32b2" stroke-width="1.5"/><line x1="160" y1="285" x2="380" y2="285" stroke="#0d32b2" stroke-width="2.4" marker-end="url(#arrow)"/><text x="270" y="275" font-size="18" font-weight="600" text-anchor="middle" fill="#0d32b2"><tspan x="270" dy="0">memory workflow(query)</tspan></text><line x1="380" y1="325" x2="620" y2="325" stroke="#0d32b2" stroke-width="2.4" marker-end="url(#arrow)"/><text x="500" y="315" font-size="18" font-weight="600" text-anchor="middle" fill="#0d32b2"><tspan x="500" dy="0">run_memory_workflow</tspan></text><line x1="620" y1="365" x2="870" y2="365" stroke="#0d32b2" stroke-width="2.4" marker-end="url(#arrow)"/><text x="745" y="355" font-size="18" font-weight="600" text-anchor="middle" fill="#0d32b2"><tspan x="745" dy="0">build_context_bundle</tspan></text><line x1="870" y1="405" x2="1120" y2="405" stroke="#0d32b2" stroke-width="2.4" marker-end="url(#arrow)"/><text x="995" y="395" font-size="18" font-weight="600" text-anchor="middle" fill="#0d32b2"><tspan x="995" dy="0">search memory_documents / FTS</tspan></text><line x1="1120" y1="455" x2="870" y2="455" stroke="#0d32b2" stroke-width="2.4" marker-end="url(#arrow)"/><text x="995" y="445" font-size="18" font-weight="600" text-anchor="middle" fill="#0d32b2"><tspan x="995" dy="0">hits + source ids</tspan></text><line x1="870" y1="520" x2="620" y2="520" stroke="#0d32b2" stroke-width="2.4" marker-end="url(#arrow)"/><text x="745" y="510" font-size="18" font-weight="600" text-anchor="middle" fill="#0d32b2"><tspan x="745" dy="0">context chunks + citations</tspan></text><line x1="620" y1="600" x2="1370" y2="600" stroke="#dc2626" stroke-width="2.4" stroke-dasharray="10 8" marker-end="url(#arrow)"/><text x="995" y="590" font-size="18" font-weight="600" text-anchor="middle" fill="#dc2626"><tspan x="995" dy="0">optional provider?</tspan></text><line x1="1370" y1="650" x2="620" y2="650" stroke="#dc2626" stroke-width="2.4" stroke-dasharray="10 8" marker-end="url(#arrow)"/><text x="995" y="640" font-size="18" font-weight="600" text-anchor="middle" fill="#dc2626"><tspan x="995" dy="0">block or approve</tspan></text><line x1="620" y1="725" x2="380" y2="725" stroke="#0d32b2" stroke-width="2.4" marker-end="url(#arrow)"/><text x="500" y="715" font-size="18" font-weight="600" text-anchor="middle" fill="#0d32b2"><tspan x="500" dy="0">workflow_id/status/stop_reason</tspan></text><line x1="380" y1="775" x2="160" y2="775" stroke="#0d32b2" stroke-width="2.4" marker-end="url(#arrow)"/><text x="270" y="765" font-size="18" font-weight="600" text-anchor="middle" fill="#0d32b2"><tspan x="270" dy="0">answer or needs_review</tspan></text><rect x="960" y="760" width="470" height="95" rx="0" fill="#fff7d6" stroke="#b08900" stroke-width="2"/><text x="978" y="795" font-size="19" font-weight="600" text-anchor="start" fill="#1f2933"><tspan x="978" dy="0">回答が正しそうでもcitation-readyでなければ</tspan><tspan x="978" dy="26">`needs_review` / `citation_missing` で止める。</tspan></text>
</svg>