<?xml version="1.0" encoding="UTF-8"?>
<svg xmlns="http://www.w3.org/2000/svg" width="1800" height="1120" viewBox="0 0 1800 1120">
<defs>
  <marker id="arrow" markerWidth="13" markerHeight="13" refX="11" refY="6.5" orient="auto"><path d="M0,0 L13,6.5 L0,13 Z" fill="#234e8f"/></marker>
  <marker id="openArrow" markerWidth="14" markerHeight="14" refX="12" refY="7" orient="auto"><path d="M1,1 L13,7 L1,13" fill="none" stroke="#234e8f" stroke-width="2"/></marker>
  <style>
    text { font-family: "Yu Gothic", "Meiryo", "Noto Sans CJK JP", "Aptos", "Segoe UI", sans-serif; }
  </style>
</defs>
<rect width="100%" height="100%" fill="#ffffff"/>
<text x="74" y="82" font-size="44" font-weight="800" text-anchor="start" fill="#1f4e79"><tspan x="74" dy="0">UMLシーケンス図：1回のメモリ検索</tspan></text><text x="78" y="122" font-size="20" font-weight="600" text-anchor="start" fill="#50606f"><tspan x="78" dy="0">検索結果をそのまま回答根拠にしない順序を明示する</tspan></text>
<rect x="55" y="154" width="190" height="66" rx="6" fill="#fbfdff" stroke="#234e8f" stroke-width="2"/><text x="150" y="182.45" font-size="17" font-weight="700" text-anchor="middle" fill="#1f2933"><tspan x="150" dy="0">利用者 /</tspan><tspan x="150" dy="21">AIエージェント</tspan></text><line x1="150" y1="220" x2="150" y2="930" stroke="#8798a8" stroke-width="2" stroke-dasharray="8 8"/><rect x="275" y="154" width="190" height="66" rx="6" fill="#fbfdff" stroke="#234e8f" stroke-width="2"/><text x="370" y="182.45" font-size="17" font-weight="700" text-anchor="middle" fill="#1f2933"><tspan x="370" dy="0">コマンド</tspan><tspan x="370" dy="21">入口</tspan></text><line x1="370" y1="220" x2="370" y2="930" stroke="#8798a8" stroke-width="2" stroke-dasharray="8 8"/><rect x="515" y="154" width="190" height="66" rx="6" fill="#fbfdff" stroke="#234e8f" stroke-width="2"/><text x="610" y="182.45" font-size="17" font-weight="700" text-anchor="middle" fill="#1f2933"><tspan x="610" dy="0">メモリ</tspan><tspan x="610" dy="21">実行履歴</tspan></text><line x1="610" y1="220" x2="610" y2="930" stroke="#8798a8" stroke-width="2" stroke-dasharray="8 8"/><rect x="765" y="154" width="190" height="66" rx="6" fill="#fbfdff" stroke="#234e8f" stroke-width="2"/><text x="860" y="182.45" font-size="17" font-weight="700" text-anchor="middle" fill="#1f2933"><tspan x="860" dy="0">クエリ</tspan><tspan x="860" dy="21">経路判断</tspan></text><line x1="860" y1="220" x2="860" y2="930" stroke="#8798a8" stroke-width="2" stroke-dasharray="8 8"/><rect x="1015" y="154" width="190" height="66" rx="6" fill="#fbfdff" stroke="#234e8f" stroke-width="2"/><text x="1110" y="182.45" font-size="17" font-weight="700" text-anchor="middle" fill="#1f2933"><tspan x="1110" dy="0">検索</tspan><tspan x="1110" dy="21">文脈作成</tspan></text><line x1="1110" y1="220" x2="1110" y2="930" stroke="#8798a8" stroke-width="2" stroke-dasharray="8 8"/><rect x="1265" y="154" width="190" height="66" rx="6" fill="#fbfdff" stroke="#234e8f" stroke-width="2"/><text x="1360" y="182.45" font-size="17" font-weight="700" text-anchor="middle" fill="#1f2933"><tspan x="1360" dy="0">SQLite</tspan><tspan x="1360" dy="21">データベース</tspan></text><line x1="1360" y1="220" x2="1360" y2="930" stroke="#8798a8" stroke-width="2" stroke-dasharray="8 8"/><rect x="1515" y="154" width="190" height="66" rx="6" fill="#fbfdff" stroke="#234e8f" stroke-width="2"/><text x="1610" y="182.45" font-size="17" font-weight="700" text-anchor="middle" fill="#1f2933"><tspan x="1610" dy="0">予算</tspan><tspan x="1610" dy="21">ガード</tspan></text><line x1="1610" y1="220" x2="1610" y2="930" stroke="#8798a8" stroke-width="2" stroke-dasharray="8 8"/><rect x="600" y="285" width="20" height="540" fill="#dce8f4" stroke="#234e8f" stroke-width="1.5"/><rect x="850" y="335" width="20" height="120" fill="#dce8f4" stroke="#234e8f" stroke-width="1.5"/><rect x="1100" y="455" width="20" height="210" fill="#dce8f4" stroke="#234e8f" stroke-width="1.5"/><rect x="1350" y="500" width="20" height="120" fill="#dce8f4" stroke="#234e8f" stroke-width="1.5"/><line x1="150" y1="300" x2="370" y2="300" stroke="#234e8f" stroke-width="2.4" marker-end="url(#arrow)"/><text x="260" y="290" font-size="17" font-weight="700" text-anchor="middle" fill="#234e8f"><tspan x="260" dy="0">メモリ検索要求</tspan></text><line x1="370" y1="345" x2="610" y2="345" stroke="#234e8f" stroke-width="2.4" marker-end="url(#arrow)"/><text x="490" y="335" font-size="17" font-weight="700" text-anchor="middle" fill="#234e8f"><tspan x="490" dy="0">実行履歴開始</tspan></text><line x1="610" y1="390" x2="860" y2="390" stroke="#234e8f" stroke-width="2.4" marker-end="url(#arrow)"/><text x="735" y="380" font-size="17" font-weight="700" text-anchor="middle" fill="#234e8f"><tspan x="735" dy="0">クエリ計画作成</tspan></text><line x1="860" y1="440" x2="610" y2="440" stroke="#234e8f" stroke-width="2.4" marker-end="url(#arrow)"/><text x="735" y="430" font-size="17" font-weight="700" text-anchor="middle" fill="#234e8f"><tspan x="735" dy="0">経路と制約</tspan></text><line x1="610" y1="485" x2="1110" y2="485" stroke="#234e8f" stroke-width="2.4" marker-end="url(#arrow)"/><text x="860" y="475" font-size="17" font-weight="700" text-anchor="middle" fill="#234e8f"><tspan x="860" dy="0">文脈束を作成</tspan></text><line x1="1110" y1="530" x2="1360" y2="530" stroke="#234e8f" stroke-width="2.4" marker-end="url(#arrow)"/><text x="1235" y="520" font-size="17" font-weight="700" text-anchor="middle" fill="#234e8f"><tspan x="1235" dy="0">検索文書 / 全文検索 / 関係</tspan></text><line x1="1360" y1="590" x2="1110" y2="590" stroke="#234e8f" stroke-width="2.4" marker-end="url(#arrow)"/><text x="1235" y="580" font-size="17" font-weight="700" text-anchor="middle" fill="#234e8f"><tspan x="1235" dy="0">候補一致 + ソースID</tspan></text><line x1="1110" y1="650" x2="610" y2="650" stroke="#234e8f" stroke-width="2.4" marker-end="url(#arrow)"/><text x="860" y="640" font-size="17" font-weight="700" text-anchor="middle" fill="#234e8f"><tspan x="860" dy="0">文脈チャンク + 引用</tspan></text><line x1="610" y1="720" x2="1610" y2="720" stroke="#c62828" stroke-width="2.4" stroke-dasharray="10 8" marker-end="url(#arrow)"/><text x="1110" y="710" font-size="17" font-weight="700" text-anchor="middle" fill="#c62828"><tspan x="1110" dy="0">外部APIが必要?</tspan></text><line x1="1610" y1="770" x2="610" y2="770" stroke="#c62828" stroke-width="2.4" stroke-dasharray="10 8" marker-end="url(#arrow)"/><text x="1110" y="760" font-size="17" font-weight="700" text-anchor="middle" fill="#c62828"><tspan x="1110" dy="0">停止 / 承認</tspan></text><line x1="610" y1="845" x2="370" y2="845" stroke="#234e8f" stroke-width="2.4" marker-end="url(#arrow)"/><text x="490" y="835" font-size="17" font-weight="700" text-anchor="middle" fill="#234e8f"><tspan x="490" dy="0">状態 + 停止理由 + 回答候補</tspan></text><line x1="370" y1="900" x2="150" y2="900" stroke="#234e8f" stroke-width="2.4" marker-end="url(#arrow)"/><text x="260" y="890" font-size="17" font-weight="700" text-anchor="middle" fill="#234e8f"><tspan x="260" dy="0">回答 / レビュー待ち / 外部保留</tspan></text><rect x="1030" y="840" width="520" height="90" rx="4" fill="#fff8df" stroke="#b08900" stroke-width="2"/><text x="1290" y="879.8" font-size="18" font-weight="650" text-anchor="middle" fill="#1f2933"><tspan x="1290" dy="0">検索一致は候補。</tspan><tspan x="1290" dy="23">ソース復元と引用確認を通って初めて回答入力になる。</tspan></text>
</svg>